<svg width="1440" height="510" viewBox="0 0 1440 510" fill="none" xmlns="http://www.w3.org/2000/svg">
<g clip-path="url(#clip0_14827_919)">
<path d="M1437.38 112.378C1411.69 105.503 1383.07 112.162 1362.91 132.3C1342.7 152.492 1336.08 181.02 1342.97 206.734C1368.66 213.609 1397.27 206.951 1417.44 186.759C1437.6 166.621 1444.26 138.038 1437.38 112.378Z" fill="black" fill-opacity="0.05"/>
<path d="M561.321 110.172V242.301C561.321 242.465 561.338 242.626 561.352 242.757C561.366 242.896 561.376 243.007 561.376 243.113C561.376 243.219 561.366 243.33 561.352 243.47C561.338 243.601 561.321 243.761 561.321 243.925V376.555C561.321 380.009 561.214 383.405 560.944 386.745L560.943 386.748C555.76 455.294 498.2 509.496 428.276 509.496C399.119 509.496 372.122 500.058 350.2 484.094L350.198 484.093C344.666 480.093 339.441 475.629 334.573 470.853L367.414 438.051C377.601 448.111 390.279 455.713 404.453 459.697V459.698C411.976 461.876 419.99 463.074 428.276 463.074C463.275 463.074 493.529 442.219 507.103 412.272C512.063 401.383 514.844 389.295 514.844 376.555V343.973L514.021 344.666C490.856 364.19 460.943 376.055 428.276 376.055C354.897 376.055 295.232 316.405 295.231 243.113C295.231 169.821 354.896 110.226 428.276 110.226C460.944 110.226 490.857 122.037 514.021 141.614L514.844 142.31V110.172H561.321ZM514.844 242.731C514.625 195.197 475.921 156.647 428.276 156.647C380.523 156.648 341.655 195.415 341.655 243.113C341.655 290.812 380.523 329.633 428.276 329.633C475.921 329.633 514.626 291.029 514.844 243.549V242.731Z" fill="black" fill-opacity="0.03" stroke="#F9F9F9"/>
<path d="M1090.95 110.172V243.167C1090.95 290.865 1129.82 329.687 1177.57 329.687C1225.21 329.686 1263.97 291.029 1264.14 243.494H1264.14V110.226H1310.62V243.175L1310.63 243.234C1310.64 243.273 1310.64 243.32 1310.64 243.438C1310.64 243.521 1310.64 243.656 1310.67 243.803V376.555C1310.67 379.955 1310.56 383.297 1310.29 386.638L1310.29 386.64C1305.11 455.186 1247.66 509.441 1177.68 509.495C1148.57 509.495 1121.52 500.112 1099.6 484.148L1099.6 484.146L1098.53 483.373C1093.35 479.58 1088.53 475.424 1083.97 470.908L1116.76 438.105C1126.95 448.165 1139.63 455.716 1153.8 459.753V459.752C1161.33 461.93 1169.4 463.074 1177.62 463.074H1177.62C1212.62 463.02 1242.82 442.166 1256.4 412.22C1261.36 401.33 1264.14 389.241 1264.14 376.5C1264.14 376.199 1264.14 375.96 1264.09 375.634H1264.14V343.973L1263.31 344.666C1240.1 364.244 1210.18 376.055 1177.57 376.055C1104.19 376.055 1044.47 316.405 1044.47 243.113V110.172H1090.95Z" fill="black" fill-opacity="0.03" stroke="#F9F9F9"/>
<path d="M266.645 110.234V376.062H220.167V343.927L219.344 344.62C196.124 364.198 166.211 376.062 133.545 376.062C60.1651 376.062 0.5 316.413 0.5 243.121C0.500215 169.829 60.165 110.234 133.545 110.234C166.212 110.234 196.125 122.045 219.344 141.623L220.167 142.316V110.234H266.645ZM133.545 156.656C85.7917 156.656 46.9778 195.423 46.9775 243.121C46.9775 290.819 85.7911 329.641 133.545 329.641C181.298 329.641 220.167 290.82 220.167 243.121C220.167 195.422 181.298 156.656 133.545 156.656Z" fill="black" fill-opacity="0.03" stroke="#F9F9F9"/>
<path d="M749.553 110.172V156.594H726.314C678.561 156.594 639.692 195.415 639.692 243.113V376.055H593.215V110.226H639.692V142.308L640.515 141.614C663.371 122.342 692.714 110.596 724.786 110.183L726.315 110.172H749.553Z" fill="black" fill-opacity="0.03" stroke="#F9F9F9"/>
<path d="M991.996 0.5H1015.23V46.9219H991.996C952.526 46.9219 919.22 73.4937 908.809 109.592L908.624 110.23H1015.23V156.652H905.374V376.059H858.896V133.441C858.896 60.1495 918.616 0.5 991.996 0.5Z" fill="black" fill-opacity="0.03" stroke="#F9F9F9"/>
<path d="M826.264 110.172V376.055H779.786V110.172H826.264Z" fill="black" fill-opacity="0.03" stroke="#F9F9F9"/>
</g>
<defs>
<clipPath id="clip0_14827_919">
<rect width="1440" height="510" fill="white"/>
</clipPath>
</defs>
</svg>
