<svg width="545" height="300" viewBox="0 0 545 300" fill="none" xmlns="http://www.w3.org/2000/svg">
<rect x="0.686523" y="0.609375" width="543.426" height="298.413" rx="8.37651" fill="#F9F9F9"/>
<rect x="1.21006" y="1.13291" width="542.379" height="297.366" rx="7.85298" stroke="black" stroke-opacity="0.01" stroke-width="1.04706"/>
<path d="M17.783 92.2933V90.8976H26.1646V92.2933H22.7791V101.562H21.1829V92.2933H17.783ZM28.5771 101.734C26.4154 101.734 24.9553 100.124 24.9553 97.7976C24.9553 95.457 26.4154 93.8322 28.5771 93.8322C30.7387 93.8322 32.1917 95.457 32.1917 97.7976C32.1917 100.124 30.7387 101.734 28.5771 101.734ZM28.5771 100.432C29.8726 100.432 30.6671 99.4009 30.6671 97.7976C30.6671 96.1728 29.8654 95.1349 28.5771 95.1349C27.2887 95.1349 26.487 96.1728 26.487 97.7976C26.487 99.408 27.2815 100.432 28.5771 100.432ZM36.8802 94.004V95.2494H35.3485V99.5655C35.3485 100.124 35.5418 100.317 36.143 100.317H36.8802V101.562H35.9283C34.511 101.562 33.8311 100.976 33.8311 99.7588V95.2494H32.4997V94.004H33.8311V91.9426H35.3485V94.004H36.8802ZM40.2733 101.684C38.7701 101.684 37.6535 100.911 37.6535 99.4009C37.6535 97.6759 39.0994 97.3037 40.6383 97.1248C42.0555 96.953 42.5279 96.9673 42.5279 96.4161V96.3517C42.5279 95.6216 41.9625 95.092 41.0033 95.092C40.037 95.092 39.3785 95.6145 39.3213 96.3088H37.8396C37.9112 94.8701 39.1352 93.8537 41.0248 93.8537C42.8858 93.8537 44.0239 94.8415 44.0239 96.3804V101.562H42.5351V100.489H42.5064C42.1915 101.097 41.5759 101.684 40.2733 101.684ZM40.581 100.467C41.9124 100.467 42.5351 99.6657 42.5351 98.7352V97.8477C42.3275 98.0123 41.5258 98.134 40.7242 98.2485C39.9011 98.3702 39.1567 98.6636 39.1567 99.4295C39.1567 100.081 39.7006 100.467 40.581 100.467ZM46.9445 90.8976V101.562H45.4342V90.8976H46.9445ZM55.3768 101.734C52.8215 101.734 51.2468 100.36 51.2468 98.1053H52.8358C52.843 99.5154 53.7806 100.346 55.3768 100.346C56.8226 100.346 57.7746 99.68 57.7746 98.6422C57.7746 97.819 57.2091 97.3466 55.7275 96.9959L54.5608 96.7168C52.4063 96.2086 51.4615 95.3139 51.4615 93.8394C51.4615 91.9641 52.9718 90.7258 55.2623 90.7258C57.5599 90.7258 59.0129 92.007 59.0773 94.0899H57.5384C57.4597 92.8659 56.5864 92.1144 55.2408 92.1144C53.9524 92.1144 53.0434 92.7944 53.0434 93.7606C53.0434 94.5337 53.616 94.9775 55.0833 95.3282L56.2357 95.6002C58.3758 96.1084 59.3636 97.0317 59.3636 98.5563C59.3636 100.475 57.7961 101.734 55.3768 101.734ZM62.7638 101.684C61.2607 101.684 60.1441 100.911 60.1441 99.4009C60.1441 97.6759 61.5899 97.3037 63.1288 97.1248C64.546 96.953 65.0184 96.9673 65.0184 96.4161V96.3517C65.0184 95.6216 64.453 95.092 63.4938 95.092C62.5276 95.092 61.8691 95.6145 61.8118 96.3088H60.3302C60.4017 94.8701 61.6257 93.8537 63.5153 93.8537C65.3763 93.8537 66.5144 94.8415 66.5144 96.3804V101.562H65.0256V100.489H64.997C64.682 101.097 64.0665 101.684 62.7638 101.684ZM63.0715 100.467C64.4029 100.467 65.0256 99.6657 65.0256 98.7352V97.8477C64.818 98.0123 64.0164 98.134 63.2147 98.2485C62.3916 98.3702 61.6472 98.6636 61.6472 99.4295C61.6472 100.081 62.1912 100.467 63.0715 100.467ZM69.435 90.8976V101.562H67.9247V90.8976H69.435ZM74.0806 101.734C71.8403 101.734 70.4803 100.081 70.4803 97.7976C70.4803 95.4928 71.9405 93.8322 74.0019 93.8322C76.142 93.8322 77.5306 95.4499 77.5306 97.7833V98.1912H71.9691C72.0192 99.5512 72.7779 100.475 74.1021 100.475C75.0898 100.475 75.7483 99.9807 75.9631 99.2649H77.4161C77.1369 100.725 75.7913 101.734 74.0806 101.734ZM71.9834 97.046H76.0561C75.9344 95.8435 75.1614 95.092 74.0162 95.092C72.8781 95.092 72.1122 95.8435 71.9834 97.046ZM81.3459 101.741C79.6138 101.741 78.2968 100.904 78.1894 99.2649H79.6782C79.7641 100.081 80.3367 100.539 81.3173 100.539C82.2764 100.539 82.8705 100.102 82.8705 99.5011C82.8705 98.9857 82.4339 98.6851 81.7825 98.542L80.5299 98.2628C79.1056 97.9479 78.3612 97.225 78.3612 96.1012C78.3612 94.7627 79.5207 93.8394 81.2529 93.8394C82.9564 93.8394 84.1732 94.7842 84.2161 96.3088H82.7703C82.756 95.5715 82.169 95.0347 81.2743 95.0347C80.4154 95.0347 79.8714 95.4928 79.8714 96.0726C79.8714 96.5808 80.2794 96.8885 80.9594 97.046L82.2478 97.3323C83.7223 97.6616 84.3951 98.3201 84.3951 99.4152C84.3951 100.854 83.1067 101.741 81.3459 101.741Z" fill="#A6A6A6"/>
<path d="M24.2863 138.649V136.171C20.5929 135.79 18.3597 133.52 18.3597 130.011H21.0837C21.096 132.06 22.2617 133.398 24.2863 133.766V127.692L24.0409 127.631C20.3475 126.759 18.7278 125.226 18.7278 122.698C18.7278 119.753 20.8997 117.728 24.2863 117.409V114.943H26.3722V117.422C29.6484 117.802 31.6852 119.913 31.7834 123.127H29.1453C29.0349 121.397 28.0042 120.232 26.3722 119.863V125.594L26.9121 125.716C30.5809 126.588 32.2742 128.17 32.2742 130.784C32.2742 133.827 29.9797 135.888 26.3722 136.195V138.649H24.2863ZM26.3722 133.802C28.3109 133.545 29.5502 132.477 29.5502 130.931C29.5502 129.581 28.6668 128.784 26.3722 128.183V133.802ZM24.2863 125.078V119.814C22.5807 120.097 21.4396 121.152 21.4396 122.563C21.4396 123.765 22.2494 124.502 24.2863 125.078ZM40.3608 117.655V135.938H37.7227V120.33H37.7104L33.2441 123.25V120.649L37.7963 117.655H40.3608ZM49.4045 136.232C45.1713 136.232 42.5332 132.575 42.5332 126.808C42.5332 121.017 45.1713 117.36 49.4045 117.36C53.6378 117.36 56.2636 121.017 56.2636 126.808C56.2636 132.575 53.6378 136.232 49.4045 136.232ZM49.4045 133.913C52.0549 133.913 53.6868 131.226 53.6868 126.808C53.6868 122.367 52.0549 119.679 49.4045 119.679C46.7419 119.679 45.1099 122.367 45.1099 126.808C45.1099 131.226 46.7419 133.913 49.4045 133.913ZM56.7304 139.508L57.7488 133.238H60.3992L58.5832 139.508H56.7304ZM68.7066 136.232C64.6697 136.232 62.1052 133.643 62.1052 130.097H64.7924C64.7924 132.526 66.228 133.962 68.6576 133.962C70.9766 133.962 72.5718 132.686 72.5718 130.71C72.5718 128.894 70.8785 127.692 68.3631 127.692H66.8416V125.471H68.3631C70.5963 125.471 72.081 124.379 72.081 122.686C72.081 120.796 70.6944 119.618 68.5962 119.618C66.4366 119.618 65.0992 120.906 65.0992 123.029H62.4856C62.4856 119.716 64.9642 117.36 68.6085 117.36C72.0932 117.36 74.6823 119.495 74.6823 122.477C74.6823 124.403 73.3816 125.9 71.3325 126.465V126.502C73.7375 126.87 75.2467 128.624 75.2467 130.784C75.2467 133.974 72.4982 136.232 68.7066 136.232ZM76.7564 135.938V133.778L83.3333 127.913C85.4192 126.023 86.4745 124.894 86.4745 123.066C86.4745 120.98 85.137 119.679 83.002 119.679C80.6706 119.679 79.3209 121.213 79.3209 123.692H76.781C76.781 119.937 79.2228 117.36 82.9897 117.36C86.5236 117.36 89.039 119.63 89.039 122.943C89.039 125.373 87.6892 127.115 85.0511 129.471L80.4621 133.594V133.618H89.1371V135.938H76.7564ZM97.5305 136.232C93.2973 136.232 90.6591 132.575 90.6591 126.808C90.6591 121.017 93.2973 117.36 97.5305 117.36C101.764 117.36 104.39 121.017 104.39 126.808C104.39 132.575 101.764 136.232 97.5305 136.232ZM97.5305 133.913C100.181 133.913 101.813 131.226 101.813 126.808C101.813 122.367 100.181 119.679 97.5305 119.679C94.8679 119.679 93.2359 122.367 93.2359 126.808C93.2359 131.226 94.8679 133.913 97.5305 133.913ZM107.065 136.146C106.108 136.146 105.359 135.398 105.359 134.428C105.359 133.471 106.108 132.71 107.065 132.71C108.034 132.71 108.783 133.471 108.783 134.428C108.783 135.398 108.034 136.146 107.065 136.146ZM109.888 133.099V131.643L115.565 123.749H117.79V131.577H119.565V133.099H117.79V135.938H116.064V133.099H109.888ZM116.064 131.577V125.655H116.047L111.81 131.561V131.577H116.064ZM124.58 136.109C122.15 136.109 120.375 134.522 120.269 132.33H122.044C122.15 133.631 123.189 134.58 124.588 134.58C126.06 134.58 127.058 133.475 127.058 131.929C127.058 130.383 126.093 129.279 124.67 129.279C123.418 129.279 122.477 129.802 122.134 130.759H120.424L120.825 123.749H128.113V125.303H122.453L122.183 128.894H122.199C122.919 128.125 123.835 127.757 124.94 127.757C127.165 127.757 128.801 129.5 128.801 131.896C128.801 134.367 127.115 136.109 124.58 136.109Z" fill="#0F0F0F"/>
<path d="M18.4129 188.445V177.78H22.3639C24.6472 177.78 26.0787 179.062 26.0787 181.102C26.0787 183.149 24.5971 184.43 22.3138 184.43H20.0019V188.445H18.4129ZM20.0019 183.056H22.2852C23.6595 183.056 24.5112 182.304 24.5112 181.102C24.5112 179.899 23.6595 179.162 22.2852 179.162H20.0019V183.056ZM26.9451 188.445V180.887H28.391V182.111H28.4196C28.6987 181.288 29.2857 180.794 30.2448 180.794C30.4738 180.794 30.6743 180.815 30.7959 180.83V182.24C30.6814 182.218 30.3522 182.168 30.0014 182.168C29.1497 182.168 28.4554 182.748 28.4554 183.979V188.445H26.9451ZM34.7687 188.617C32.6071 188.617 31.1469 187.007 31.1469 184.68C31.1469 182.34 32.6071 180.715 34.7687 180.715C36.9303 180.715 38.3833 182.34 38.3833 184.68C38.3833 187.007 36.9303 188.617 34.7687 188.617ZM34.7687 187.314C36.0643 187.314 36.8588 186.284 36.8588 184.68C36.8588 183.056 36.0571 182.018 34.7687 182.018C33.4803 182.018 32.6787 183.056 32.6787 184.68C32.6787 186.291 33.4732 187.314 34.7687 187.314ZM42.3347 188.596C40.3663 188.596 39.0564 187.007 39.0564 184.666C39.0564 182.333 40.3735 180.737 42.3275 180.737C43.3081 180.737 44.1599 181.144 44.6466 181.982H44.6609V177.78H46.1712V188.445H44.6895V187.293H44.6752C44.167 188.173 43.3224 188.596 42.3347 188.596ZM42.6424 187.293C43.9308 187.293 44.7611 186.255 44.7611 184.666C44.7611 183.077 43.9308 182.032 42.6424 182.032C41.4256 182.032 40.5882 182.955 40.5882 184.666C40.5882 186.37 41.4256 187.293 42.6424 187.293ZM50.3157 188.596C48.7625 188.596 47.5815 187.572 47.5815 185.597V180.887H49.0918V185.41C49.0918 186.62 49.7002 187.243 50.7524 187.243C51.7759 187.243 52.5704 186.642 52.5704 185.239V180.887H54.0807V188.445H52.599V187.307C52.0837 188.166 51.3178 188.596 50.3157 188.596ZM58.7263 188.617C56.5647 188.617 55.1188 186.992 55.1188 184.68C55.1188 182.354 56.5718 180.715 58.7263 180.715C60.53 180.715 61.847 181.867 62.0331 183.471H60.53C60.3725 182.619 59.757 182.018 58.7334 182.018C57.4307 182.018 56.6506 183.063 56.6506 184.68C56.6506 186.284 57.4236 187.314 58.7334 187.314C59.7713 187.314 60.3081 186.735 60.5085 185.854H62.0331C61.8613 187.429 60.53 188.617 58.7263 188.617ZM66.2564 188.617C64.0161 188.617 62.6561 186.964 62.6561 184.68C62.6561 182.376 64.1163 180.715 66.1777 180.715C68.3178 180.715 69.7064 182.333 69.7064 184.666V185.074H64.1449C64.195 186.434 64.9537 187.357 66.2779 187.357C67.2656 187.357 67.9242 186.863 68.1389 186.148H69.5919C69.3127 187.608 67.9671 188.617 66.2564 188.617ZM64.1592 183.929H68.2319C68.1103 182.726 67.3372 181.975 66.192 181.975C65.0539 181.975 64.2881 182.726 64.1592 183.929ZM77.7379 188.617C75.1826 188.617 73.6079 187.243 73.6079 184.988H75.1969C75.2041 186.398 76.1417 187.229 77.7379 187.229C79.1837 187.229 80.1357 186.563 80.1357 185.525C80.1357 184.702 79.5702 184.229 78.0886 183.879L76.9219 183.6C74.7674 183.091 73.8226 182.197 73.8226 180.722C73.8226 178.847 75.3329 177.609 77.6234 177.609C79.921 177.609 81.374 178.89 81.4384 180.973H79.8995C79.8208 179.749 78.9475 178.997 77.6019 178.997C76.3135 178.997 75.4045 179.677 75.4045 180.643C75.4045 181.416 75.9771 181.86 77.4444 182.211L78.5968 182.483C80.7369 182.991 81.7247 183.915 81.7247 185.439C81.7247 187.357 80.1572 188.617 77.7379 188.617ZM86.0697 188.617C83.9081 188.617 82.4479 187.007 82.4479 184.68C82.4479 182.34 83.9081 180.715 86.0697 180.715C88.2313 180.715 89.6843 182.34 89.6843 184.68C89.6843 187.007 88.2313 188.617 86.0697 188.617ZM86.0697 187.314C87.3652 187.314 88.1597 186.284 88.1597 184.68C88.1597 183.056 87.3581 182.018 86.0697 182.018C84.7813 182.018 83.9796 183.056 83.9796 184.68C83.9796 186.291 84.7741 187.314 86.0697 187.314ZM92.2399 177.78V188.445H90.7296V177.78H92.2399ZM96.5634 188.596C94.595 188.596 93.2852 187.007 93.2852 184.666C93.2852 182.333 94.6022 180.737 96.5562 180.737C97.5368 180.737 98.3886 181.144 98.8753 181.982H98.8896V177.78H100.4V188.445H98.9183V187.293H98.9039C98.3958 188.173 97.5511 188.596 96.5634 188.596ZM96.8712 187.293C98.1595 187.293 98.9898 186.255 98.9898 184.666C98.9898 183.077 98.1595 182.032 96.8712 182.032C95.6544 182.032 94.8169 182.955 94.8169 184.666C94.8169 186.37 95.6544 187.293 96.8712 187.293Z" fill="#A6A6A6"/>
<rect x="17.4395" y="203.008" width="8.37651" height="58.6356" rx="4.18826" fill="#0CC14C"/>
<rect x="30.0039" y="203.008" width="8.37651" height="58.6356" rx="4.18826" fill="#0CC14C"/>
<rect x="42.5693" y="203.008" width="8.37651" height="58.6356" rx="4.18826" fill="#0CC14C"/>
<rect x="55.1338" y="203.008" width="8.37651" height="58.6356" rx="4.18826" fill="#0CC14C"/>
<rect x="67.6982" y="203.008" width="8.37651" height="58.6356" rx="4.18826" fill="#0CC14C"/>
<rect x="80.2637" y="203.008" width="8.37651" height="58.6356" rx="4.18826" fill="#0CC14C"/>
<rect x="92.8281" y="203.008" width="8.37651" height="58.6356" rx="4.18826" fill="#0CC14C"/>
<rect x="105.393" y="203.008" width="8.37651" height="58.6356" rx="4.18826" fill="#0CC14C"/>
<rect x="117.958" y="203.008" width="8.37651" height="58.6356" rx="4.18826" fill="#0CC14C"/>
<rect x="130.522" y="203.008" width="8.37651" height="58.6356" rx="4.18826" fill="#0CC14C"/>
<rect x="143.087" y="203.008" width="8.37651" height="58.6356" rx="4.18826" fill="#0CC14C"/>
<rect x="155.652" y="203.008" width="8.37651" height="58.6356" rx="4.18826" fill="#0CC14C"/>
<rect x="168.217" y="203.008" width="8.37651" height="58.6356" rx="4.18826" fill="#0CC14C"/>
<rect x="180.781" y="203.008" width="8.37651" height="58.6356" rx="4.18826" fill="#0CC14C"/>
<rect x="193.346" y="203.008" width="8.37651" height="58.6356" rx="4.18826" fill="#0CC14C"/>
<rect x="205.911" y="203.008" width="8.37651" height="58.6356" rx="4.18826" fill="#0CC14C"/>
<rect x="218.476" y="203.008" width="8.37651" height="58.6356" rx="4.18826" fill="#0CC14C"/>
<rect x="231.04" y="203.008" width="8.37651" height="58.6356" rx="4.18826" fill="#0CC14C"/>
<rect x="243.605" y="203.008" width="8.37651" height="58.6356" rx="4.18826" fill="#0CC14C"/>
<rect x="256.17" y="203.008" width="8.37651" height="58.6356" rx="4.18826" fill="#0CC14C"/>
<rect x="268.734" y="203.008" width="8.37651" height="58.6356" rx="4.18826" fill="#0F0F0F" fill-opacity="0.15"/>
<rect x="281.3" y="203.008" width="8.37651" height="58.6356" rx="4.18826" fill="#0F0F0F" fill-opacity="0.15"/>
<rect x="293.864" y="203.008" width="8.37651" height="58.6356" rx="4.18826" fill="#0F0F0F" fill-opacity="0.15"/>
<rect x="306.429" y="203.008" width="8.37651" height="58.6356" rx="4.18826" fill="#0F0F0F" fill-opacity="0.15"/>
<rect x="318.994" y="203.008" width="8.37651" height="58.6356" rx="4.18826" fill="#0F0F0F" fill-opacity="0.15"/>
<rect x="331.559" y="203.008" width="8.37651" height="58.6356" rx="4.18826" fill="#0F0F0F" fill-opacity="0.15"/>
<rect x="344.123" y="203.008" width="8.37651" height="58.6356" rx="4.18826" fill="#0F0F0F" fill-opacity="0.15"/>
<rect x="356.688" y="203.008" width="8.37651" height="58.6356" rx="4.18826" fill="#0F0F0F" fill-opacity="0.15"/>
<rect x="369.253" y="203.008" width="8.37651" height="58.6356" rx="4.18826" fill="#0F0F0F" fill-opacity="0.15"/>
<rect x="381.817" y="203.008" width="8.37651" height="58.6356" rx="4.18826" fill="#0F0F0F" fill-opacity="0.15"/>
<rect x="394.383" y="203.008" width="8.37651" height="58.6356" rx="4.18826" fill="#0F0F0F" fill-opacity="0.15"/>
<rect x="406.947" y="203.008" width="8.37651" height="58.6356" rx="4.18826" fill="#0F0F0F" fill-opacity="0.15"/>
<rect x="419.512" y="203.008" width="8.37651" height="58.6356" rx="4.18826" fill="#0F0F0F" fill-opacity="0.15"/>
<rect x="432.076" y="203.008" width="8.37651" height="58.6356" rx="4.18826" fill="#0F0F0F" fill-opacity="0.15"/>
<rect x="444.642" y="203.008" width="8.37651" height="58.6356" rx="4.18826" fill="#0F0F0F" fill-opacity="0.15"/>
<rect x="457.206" y="203.008" width="8.37651" height="58.6356" rx="4.18826" fill="#0F0F0F" fill-opacity="0.15"/>
<rect x="469.771" y="203.008" width="8.37651" height="58.6356" rx="4.18826" fill="#0F0F0F" fill-opacity="0.15"/>
<rect x="482.336" y="203.008" width="8.37651" height="58.6356" rx="4.18826" fill="#0F0F0F" fill-opacity="0.15"/>
<rect x="494.9" y="203.008" width="8.37651" height="58.6356" rx="4.18826" fill="#0F0F0F" fill-opacity="0.15"/>
<rect x="17.963" y="43.0157" width="32.459" height="28.2707" rx="7.85298" fill="white"/>
<rect x="17.963" y="43.0157" width="32.459" height="28.2707" rx="7.85298" stroke="#EEEEEE" stroke-width="1.04706"/>
<path d="M27.2119 53.6621L30.2903 50.5837C30.4202 50.4531 30.5746 50.3494 30.7447 50.2787C30.9149 50.208 31.0973 50.1717 31.2815 50.1719H37.1032C37.2874 50.1717 37.4698 50.208 37.6399 50.2787C37.8101 50.3494 37.9645 50.4531 38.0944 50.5837L41.1728 53.6621" stroke="#B274C9" stroke-width="1.39608" stroke-linecap="round" stroke-linejoin="round"/>
<path d="M28.6084 57.1484V62.7328C28.6084 63.103 28.7555 63.4581 29.0173 63.72C29.2791 63.9818 29.6342 64.1289 30.0045 64.1289H38.381C38.7513 64.1289 39.1064 63.9818 39.3682 63.72C39.63 63.4581 39.7771 63.103 39.7771 62.7328V57.1484" stroke="#B274C9" stroke-width="1.39608" stroke-linecap="round" stroke-linejoin="round"/>
<path d="M36.2869 64.1336V61.3414C36.2869 60.9711 36.1398 60.616 35.878 60.3542C35.6162 60.0924 35.2611 59.9453 34.8908 59.9453H33.4947C33.1245 59.9453 32.7694 60.0924 32.5075 60.3542C32.2457 60.616 32.0986 60.9711 32.0986 61.3414V64.1336" stroke="#B274C9" stroke-width="1.39608" stroke-linecap="round" stroke-linejoin="round"/>
<path d="M27.2119 53.6562H41.1728" stroke="#B274C9" stroke-width="1.39608" stroke-linecap="round" stroke-linejoin="round"/>
<path d="M41.1728 53.6562V55.7504C41.1728 56.1206 41.0257 56.4757 40.7639 56.7376C40.502 56.9994 40.1469 57.1465 39.7767 57.1465C39.3688 57.124 38.9793 56.9697 38.6668 56.7067C38.5835 56.6465 38.4834 56.6141 38.3806 56.6141C38.2778 56.6141 38.1777 56.6465 38.0944 56.7067C37.7819 56.9697 37.3924 57.124 36.9845 57.1465C36.5767 57.124 36.1872 56.9697 35.8746 56.7067C35.7913 56.6465 35.6912 56.6141 35.5884 56.6141C35.4857 56.6141 35.3855 56.6465 35.3022 56.7067C34.9897 56.9697 34.6002 57.124 34.1923 57.1465C33.7845 57.124 33.395 56.9697 33.0825 56.7067C32.9992 56.6465 32.899 56.6141 32.7963 56.6141C32.6935 56.6141 32.5933 56.6465 32.5101 56.7067C32.1975 56.9697 31.808 57.124 31.4002 57.1465C30.9923 57.124 30.6028 56.9697 30.2903 56.7067C30.207 56.6465 30.1068 56.6141 30.0041 56.6141C29.9013 56.6141 29.8012 56.6465 29.7179 56.7067C29.4054 56.9697 29.0158 57.124 28.608 57.1465C28.2377 57.1465 27.8826 56.9994 27.6208 56.7376C27.359 56.4757 27.2119 56.1206 27.2119 55.7504V53.6562" stroke="#B274C9" stroke-width="1.39608" stroke-linecap="round" stroke-linejoin="round"/>
<path d="M57.1541 62.6484V51.9835H59.3945L61.7851 58.2322C61.9784 58.7761 62.3291 59.7854 62.5725 60.5226C62.8158 59.7854 63.1665 58.7761 63.3526 58.2322L65.7075 51.9835H67.955V62.6484H66.3946V56.8364C66.3946 56.0777 66.4233 54.9897 66.4447 53.9805C66.0511 55.1401 65.686 56.228 65.457 56.8364L63.2095 62.6484H61.9068L59.6378 56.8364C59.4159 56.2495 59.058 55.2331 58.6715 54.1308C58.693 55.0971 58.7216 56.1135 58.7216 56.8364V62.6484H57.1541ZM71.799 62.7701C70.2959 62.7701 69.1793 61.9971 69.1793 60.4868C69.1793 58.7618 70.6251 58.3896 72.164 58.2107C73.5812 58.0389 74.0536 58.0532 74.0536 57.5021V57.4377C74.0536 56.7076 73.4882 56.1779 72.529 56.1779C71.5628 56.1779 70.9043 56.7004 70.847 57.3947H69.3654C69.4369 55.956 70.6609 54.9396 72.5505 54.9396C74.4115 54.9396 75.5496 55.9274 75.5496 57.4663V62.6484H74.0608V61.5748H74.0322C73.7172 62.1832 73.1017 62.7701 71.799 62.7701ZM72.1067 61.5533C73.4381 61.5533 74.0608 60.7517 74.0608 59.8212V58.9336C73.8532 59.0982 73.0516 59.2199 72.2499 59.3344C71.4268 59.4561 70.6824 59.7496 70.6824 60.5155C70.6824 61.1668 71.2264 61.5533 72.1067 61.5533ZM76.9599 62.6484V55.0899H78.4058V56.3139H78.4344C78.7136 55.4908 79.3005 54.9969 80.2596 54.9969C80.4887 54.9969 80.6891 55.0184 80.8107 55.0327V56.4427C80.6962 56.4213 80.367 56.3712 80.0162 56.3712C79.1645 56.3712 78.4702 56.9509 78.4702 58.1821V62.6484H76.9599ZM81.5483 62.6484V51.9835H83.0585V58.3181H83.08L86.301 55.0899H88.1763L84.9768 58.3395L88.391 62.6484H86.5372L83.8244 59.2485L83.0585 59.9929V62.6484H81.5483ZM91.7983 62.8202C89.558 62.8202 88.198 61.1668 88.198 58.8835C88.198 56.5787 89.6582 54.9182 91.7196 54.9182C93.8597 54.9182 95.2483 56.5358 95.2483 58.8692V59.2772H89.6868C89.7369 60.6371 90.4956 61.5605 91.8198 61.5605C92.8076 61.5605 93.4661 61.0666 93.6808 60.3508H95.1338C94.8547 61.811 93.509 62.8202 91.7983 62.8202ZM89.7011 58.132H93.7738C93.6522 56.9295 92.8791 56.1779 91.7339 56.1779C90.5958 56.1779 89.83 56.9295 89.7011 58.132ZM99.9082 55.0899V56.3354H98.3765V60.6515C98.3765 61.2097 98.5698 61.403 99.171 61.403H99.9082V62.6484H98.9563C97.5391 62.6484 96.8591 62.0615 96.8591 60.8447V56.3354H95.5278V55.0899H96.8591V53.0285H98.3765V55.0899H99.9082ZM100.81 65.6403V55.0899H102.292V56.1779H102.314C102.793 55.3476 103.673 54.9396 104.654 54.9396C106.608 54.9396 107.925 56.5358 107.925 58.8692C107.925 61.2097 106.615 62.7987 104.647 62.7987C103.659 62.7987 102.85 62.3764 102.342 61.5104H102.321V65.6403H100.81ZM104.339 61.4961C105.556 61.4961 106.393 60.5727 106.393 58.8692C106.393 57.1585 105.556 56.2352 104.339 56.2352C103.051 56.2352 102.22 57.2802 102.22 58.8692C102.22 60.4582 103.051 61.4961 104.339 61.4961ZM110.474 51.9835V62.6484H108.963V51.9835H110.474ZM114.196 62.7701C112.693 62.7701 111.576 61.9971 111.576 60.4868C111.576 58.7618 113.022 58.3896 114.561 58.2107C115.978 58.0389 116.45 58.0532 116.45 57.5021V57.4377C116.45 56.7076 115.885 56.1779 114.926 56.1779C113.96 56.1779 113.301 56.7004 113.244 57.3947H111.762C111.834 55.956 113.058 54.9396 114.947 54.9396C116.808 54.9396 117.946 55.9274 117.946 57.4663V62.6484H116.458V61.5748H116.429C116.114 62.1832 115.498 62.7701 114.196 62.7701ZM114.504 61.5533C115.835 61.5533 116.458 60.7517 116.458 59.8212V58.9336C116.25 59.0982 115.448 59.2199 114.647 59.3344C113.824 59.4561 113.079 59.7496 113.079 60.5155C113.079 61.1668 113.623 61.5533 114.504 61.5533ZM122.592 62.8202C120.43 62.8202 118.985 61.1954 118.985 58.8835C118.985 56.5573 120.438 54.9182 122.592 54.9182C124.396 54.9182 125.713 56.0705 125.899 57.6739H124.396C124.238 56.8221 123.623 56.2209 122.599 56.2209C121.296 56.2209 120.516 57.2659 120.516 58.8835C120.516 60.4868 121.289 61.5175 122.599 61.5175C123.637 61.5175 124.174 60.9378 124.374 60.0574H125.899C125.727 61.632 124.396 62.8202 122.592 62.8202ZM130.122 62.8202C127.882 62.8202 126.522 61.1668 126.522 58.8835C126.522 56.5787 127.982 54.9182 130.043 54.9182C132.184 54.9182 133.572 56.5358 133.572 58.8692V59.2772H128.011C128.061 60.6371 128.819 61.5605 130.144 61.5605C131.131 61.5605 131.79 61.0666 132.005 60.3508H133.458C133.178 61.811 131.833 62.8202 130.122 62.8202ZM128.025 58.132H132.098C131.976 56.9295 131.203 56.1779 130.058 56.1779C128.92 56.1779 128.154 56.9295 128.025 58.132Z" fill="#565656"/>
</svg>
