<svg width="90" height="33" viewBox="0 0 90 33" fill="none" xmlns="http://www.w3.org/2000/svg">
<g clip-path="url(#clip0_14944_925)">
<path d="M89.086 7.67822C87.4937 7.25161 85.7201 7.66478 84.4705 8.91438C83.2176 10.1673 82.8078 11.9376 83.2344 13.5332C84.8266 13.9598 86.6002 13.5466 87.8498 12.2937C89.0994 11.0441 89.5126 9.27044 89.086 7.67822Z" fill="#0CC14C"/>
<path d="M34.8214 7.50781H31.8788V9.46618C30.4377 8.24682 28.5767 7.51117 26.5445 7.51117C21.9794 7.51117 18.2676 11.223 18.2676 15.7881C18.2676 20.3531 21.9794 24.0683 26.5445 24.0683C28.5767 24.0683 30.4377 23.3293 31.8788 22.1133V24.0683C31.8788 24.8543 31.7074 25.6001 31.4018 26.2719C30.5653 28.1194 28.701 29.406 26.5445 29.406C26.0339 29.406 25.5401 29.3321 25.0765 29.1977C24.1931 28.9491 23.4037 28.4721 22.7722 27.8406L20.6929 29.9199C21.0019 30.2256 21.3345 30.5111 21.6872 30.7664C23.051 31.7607 24.7305 32.3486 26.5445 32.3486C30.8945 32.3486 34.4754 28.9726 34.7978 24.7032C34.8146 24.4949 34.8214 24.2833 34.8214 24.0683V15.8385C34.8214 15.8217 34.8247 15.8049 34.8247 15.7881C34.8247 15.7713 34.8214 15.7545 34.8214 15.7377V7.50781ZM31.8788 15.8149C31.8653 18.7441 29.4803 21.1257 26.5445 21.1257C23.6019 21.1257 21.2068 18.7307 21.2068 15.7881C21.2068 12.8455 23.6019 10.4538 26.5445 10.4538C29.4803 10.4538 31.8653 12.832 31.8788 15.7645V15.8149Z" fill="#0CC14C"/>
<path d="M81.2603 15.7881V7.51117H78.3177V15.8116C78.3076 18.7441 75.9193 21.1291 72.9834 21.1291C70.0408 21.1291 67.6457 18.734 67.6457 15.7914V7.50781H64.7031V15.7881C64.7031 20.3531 68.4183 24.0683 72.9834 24.0683C75.0123 24.0683 76.8732 23.3327 78.3177 22.1133V24.0112C78.3177 24.0112 78.3177 24.0112 78.3143 24.0112C78.3177 24.0314 78.3177 24.0448 78.3177 24.065C78.3177 24.851 78.1464 25.5967 77.8407 26.2685C77.0043 28.1161 75.1433 29.4026 72.9867 29.406C72.4795 29.406 71.9824 29.3354 71.5188 29.2011C70.6353 28.9491 69.846 28.4755 69.2144 27.844L67.1385 29.9233C67.4475 30.2323 67.7767 30.5145 68.1328 30.7698C69.4966 31.7641 71.1795 32.3486 72.9901 32.3486C77.3435 32.3452 80.9176 28.9659 81.2401 24.6965C81.2569 24.4882 81.2636 24.2799 81.2636 24.0683V15.8284C81.2603 15.8149 81.2636 15.8015 81.2603 15.7881Z" fill="#0CC14C"/>
<path d="M13.6145 9.47064C12.1701 8.25127 10.3092 7.51562 8.27689 7.51562C3.71184 7.51562 0 11.2275 0 15.7925C0 20.3576 3.71184 24.0728 8.27689 24.0728C10.3092 24.0728 12.1701 23.3338 13.6145 22.1144V24.0728H16.5571V7.51562H13.6145V9.47064ZM8.27689 21.1302C5.33429 21.1302 2.9426 18.7351 2.9426 15.7925C2.9426 12.8499 5.33429 10.4582 8.27689 10.4582C11.2195 10.4582 13.6145 12.8499 13.6145 15.7925C13.6145 18.7351 11.2195 21.1302 8.27689 21.1302Z" fill="#0CC14C"/>
<path d="M39.6779 9.46618V7.51117H36.7354V24.0683H39.6779V17.2594V15.7881C39.6779 12.8455 42.073 10.4504 45.0156 10.4504H46.4869V7.50781H45.0156C42.9833 7.51117 41.1224 8.24682 39.6779 9.46618Z" fill="#0CC14C"/>
<path d="M53.2021 8.98337V24.0692H56.1447V10.4547H62.9537V7.51208H56.3564C56.998 5.28498 59.0504 3.64572 61.4824 3.64572H62.9537V0.703125H61.4824C56.9173 0.703125 53.2021 4.41832 53.2021 8.98337Z" fill="#0CC14C"/>
<path d="M48.2988 7.50781V16.5103V24.0683H51.2414V16.5103V9.05973V7.50781H51.0936H48.2988Z" fill="#0CC14C"/>
</g>
<defs>
<clipPath id="clip0_14944_925">
<rect width="89.2487" height="31.6463" fill="white" transform="translate(0 0.703125)"/>
</clipPath>
</defs>
</svg>
