<svg width="78" height="65" viewBox="0 0 78 65" fill="none" xmlns="http://www.w3.org/2000/svg">
<rect x="0.87207" width="77" height="64.6162" rx="32" fill="white"/>
<g clip-path="url(#clip0_8717_172)">
<path d="M46.8952 34.4328C43.3153 34.4351 39.1596 31.2698 39.1596 26.446C39.1596 21.6215 42.7187 19.4201 46.5302 19.4703C51.9453 19.5421 53.8629 23.5709 53.4598 27.8225L43.8908 27.8188V25.0158H49.9226C49.9914 23.5096 48.4414 22.1406 46.5302 22.1406C44.4791 22.1406 42.187 23.9967 42.2554 25.5029L42.3314 27.6325C42.4001 29.8917 45.8368 31.8876 47.4809 31.8615C51.0751 31.8056 52.3662 30.1052 53.0184 28.9864L53.2939 28.9807C53.4541 28.1222 53.5421 27.238 53.5421 26.333C53.5421 18.4172 47.1249 12 39.2091 12C31.2933 12 24.8761 18.4172 24.8761 26.333C24.8761 34.2488 31.2933 40.666 39.2091 40.666C44.3926 40.666 48.933 37.9137 51.4503 33.7912C50.2256 34.1823 48.7289 34.4313 46.8952 34.4328Z" fill="black"/>
<path d="M31.9828 28.5015C33.2007 28.5015 34.188 27.5142 34.188 26.2963C34.188 25.0784 33.2007 24.0911 31.9828 24.0911C30.7649 24.0911 29.7776 25.0784 29.7776 26.2963C29.7776 27.5142 30.7649 28.5015 31.9828 28.5015Z" fill="white"/>
<path d="M27.6204 46.2314C27.5698 45.1148 28.5364 43.7949 30.0573 43.7949C31.4742 43.7949 32.3418 44.8102 32.2912 45.9276H28.3818V47.7806L35.0832 47.7549C35.1848 45.4197 33.7626 41.7394 30.0573 41.8149C27.5698 41.8659 24.9297 43.4662 24.9297 47.0441C24.9297 50.6217 28.0334 52.4037 30.1589 52.3746C33.916 52.324 34.779 49.6332 34.9313 48.8715H32.4438C31.9602 49.7013 31.3129 50.2008 30.3116 50.2424C29.093 50.2934 27.6714 49.4303 27.6208 47.7545L27.6204 46.2314ZM53.5164 49.9374L53.5126 49.9367V45.0131C53.5126 42.8352 51.5326 42.0685 48.8925 42.0685C45.1864 42.0685 44.7802 44.353 44.8309 45.3683H47.217C47.2677 44.7592 47.9263 43.9468 48.8415 43.9468C49.8061 43.9468 51.0244 44.1497 50.9737 45.1144L50.7704 45.7742L49.9074 46.0285C46.6571 46.4056 44.4556 46.7078 44.1983 48.9297C43.7812 45.0071 37.8737 46.4294 37.8242 44.7082C37.7996 43.8459 38.8214 43.5913 39.7029 43.5913C40.8199 43.5913 41.5306 44.3024 41.6319 45.3173H43.9421C43.5612 42.2967 40.6672 41.7639 39.2967 41.7639C37.724 41.7639 35.4172 42.5257 35.3874 44.9115C35.3367 48.9727 41.5813 47.0275 41.5813 49.43C41.5813 50.1407 40.7182 50.6486 39.449 50.5979C38.309 50.5522 37.596 49.5822 37.596 48.8715H35.1844C35.2351 51.3087 37.8249 52.4827 39.6523 52.5273C41.5892 52.5741 43.8945 51.379 44.1877 49.7092C44.3642 52.0455 46.4492 52.5292 47.8262 52.5775C47.9894 52.584 48.8921 52.8825 51.126 51.7149L51.4812 52.3746H53.8674C53.6089 51.7436 53.5386 50.6395 53.5164 49.9374ZM48.5373 50.6992C47.7253 50.6992 46.9631 50.327 46.9631 49.5316C46.9631 47.821 48.9843 48.0334 50.2634 47.6533L51.0754 47.5006V49.3287C50.419 50.1407 49.6089 50.6992 48.5373 50.6992Z" fill="black"/>
</g>
<defs>
<clipPath id="clip0_8717_172">
<rect width="29" height="40.6162" fill="white" transform="translate(24.8721 12)"/>
</clipPath>
</defs>
</svg>
