<svg width="134" height="36" viewBox="0 0 134 36" fill="none" xmlns="http://www.w3.org/2000/svg">
<rect x="0.501953" y="0.164062" width="133.461" height="35.6772" rx="17.8386" fill="white"/>
<g clip-path="url(#clip0_14817_2615)">
<path fill-rule="evenodd" clip-rule="evenodd" d="M27.1851 13.3343C27.1014 13.0499 27.0377 12.7599 26.9946 12.4665V11.6118C28.59 11.6276 30.1213 12.2421 31.2851 13.3336L27.1851 13.3343ZM26.6528 13.3343C26.74 13.0466 26.8063 12.7519 26.8511 12.4511V11.6118C25.2556 11.6276 23.7243 12.2421 22.5605 13.3336H26.6521L26.6528 13.3343ZM22.4618 13.4786H26.6065C26.5463 13.6607 26.4776 13.8398 26.4006 14.0155C26.0822 14.777 25.6214 15.4709 25.0429 16.0597L22.4618 13.4786ZM22.2582 13.3343H19.9625V13.4786H22.2111C21.0596 14.6752 20.4092 16.2667 20.3929 17.9272H17.666V18.0707H20.3929C20.4092 19.7313 21.0596 21.3228 22.2111 22.5194H19.9625V22.6629H22.2582V24.9593H22.4024V22.7107C23.599 23.8622 25.1905 24.5126 26.8511 24.5289V27.2558H26.9946V24.5289C28.6551 24.5126 30.2466 23.8622 31.4432 22.7107V24.9593H31.5867V22.6629H33.8832V22.5194H31.6345C32.786 21.3228 33.4365 19.7313 33.4527 18.0707H36.1796V17.9272H33.4527C33.4365 16.2667 32.786 14.6752 31.6345 13.4786H33.8832V13.3343H31.5867V11.0386H31.4432V13.2873C30.2466 12.1358 28.6551 11.4853 26.9946 11.4691V8.74219H26.8511V11.4691C25.1905 11.4853 23.599 12.1358 22.4024 13.2873V11.0386H22.2582V13.3343ZM26.9946 24.3854C28.5901 24.3694 30.1214 23.7546 31.2851 22.6629H27.1851C27.1018 22.946 27.0385 23.236 26.9946 23.5315V24.3854ZM26.8511 23.5469C26.8064 23.2477 26.7399 22.9523 26.6521 22.6629H22.5605C23.7242 23.7546 25.2555 24.3694 26.8511 24.3854V23.5469ZM20.5364 17.9272H21.3903C21.6837 17.8841 21.9737 17.8204 22.2582 17.7367V13.6367C21.1667 14.8005 20.5522 16.3318 20.5364 17.9272ZM21.3749 18.0707H20.5356C20.5514 19.6662 21.1659 21.1975 22.2574 22.3613V18.2697C21.9682 18.1819 21.6738 18.1154 21.3749 18.0707ZM33.3085 17.9272C33.2927 16.3318 32.6782 14.8005 31.5867 13.6367V17.7367C31.8698 17.82 32.1598 17.8833 32.4553 17.9272H33.3085ZM32.4707 18.0707C32.1699 18.1155 31.8752 18.1818 31.5867 18.2697V22.3613C32.6784 21.1976 33.2932 19.6663 33.3092 18.0707H32.4707ZM31.4432 22.46V18.3153C31.2611 18.3755 31.082 18.4442 30.9063 18.5212C30.1447 18.8396 29.4509 19.3004 28.8621 19.8789L31.4432 22.46ZM31.4432 17.6927V13.4886L31.434 13.4786H27.2291C27.2877 13.6599 27.354 13.8396 27.4296 14.0155C27.7631 14.7886 28.2391 15.492 28.8328 16.089C29.4297 16.683 30.1332 17.1592 30.9063 17.4929C31.0822 17.5678 31.2612 17.6341 31.4432 17.6927ZM22.4024 22.5101V18.3153C22.5837 18.3754 22.7634 18.4441 22.9393 18.5212C23.7138 18.8452 24.418 19.3165 25.0128 19.909C25.6053 20.5038 26.0766 21.208 26.4006 21.9825C26.4777 22.1584 26.5471 22.3373 26.6065 22.5194H22.4117L22.4024 22.5101ZM22.4024 17.6927V13.6221L24.9403 16.16C24.3588 16.7209 23.681 17.1725 22.9393 17.4929C22.7635 17.5677 22.5843 17.6343 22.4024 17.6927ZM27.2291 22.5194H31.2997L28.7618 19.9815C28.2009 20.563 27.7493 21.2408 27.4289 21.9825C27.3541 22.1583 27.2874 22.3375 27.2291 22.5194ZM25.4186 16.4948C24.7783 17.1323 24.0249 17.645 23.197 18.0067C24.0263 18.359 24.7805 18.867 25.4186 19.5032C26.0548 20.1413 26.5628 20.8955 26.9151 21.7248C27.2768 20.8969 27.7895 20.1435 28.427 19.5032C29.0652 18.867 29.8193 18.359 30.6487 18.0067C29.8207 17.645 29.0673 17.1323 28.427 16.4948C27.7895 15.8545 27.2768 15.1011 26.9151 14.2731C26.5628 15.1025 26.0548 15.8566 25.4186 16.4948Z" fill="black"/>
</g>
<g clip-path="url(#clip1_14817_2615)">
<path fill-rule="evenodd" clip-rule="evenodd" d="M48.448 24.9898C46.9857 24.9898 45.6386 24.6353 44.4068 23.9256C43.186 23.2263 42.1737 22.2142 41.4741 20.9936C40.7496 19.747 40.3877 18.3711 40.3877 16.866C40.3877 15.3594 40.7496 13.9842 41.4733 12.7391C42.1731 11.5184 43.1857 10.5063 44.4068 9.80714C45.6386 9.09668 46.9857 8.74219 48.448 8.74219C49.5927 8.74219 50.668 8.94528 51.6753 9.35073C52.6812 9.75618 53.5106 10.3278 54.1627 11.0663L52.837 12.3912C52.3444 11.7834 51.7145 11.316 50.9464 10.9903C50.1626 10.6612 49.3202 10.4949 48.4701 10.5014C47.3697 10.5014 46.3447 10.7658 45.3956 11.2945C44.4466 11.8233 43.6867 12.5685 43.1143 13.5323C42.542 14.4938 42.2562 15.6053 42.2562 16.866C42.2562 18.1259 42.542 19.2367 43.1143 20.2004C43.6621 21.1399 44.4543 21.9132 45.4067 22.4382C46.3427 22.9614 47.3978 23.2344 48.4701 23.2306C49.5129 23.2306 50.3859 23.0681 51.0882 22.7417C51.7698 22.4307 52.3855 21.992 52.902 21.4493C53.2933 21.0205 53.6027 20.5236 53.8148 19.9833C54.0467 19.4109 54.1915 18.7773 54.2491 18.0823H48.4915V16.3667H55.9654C56.0378 16.7722 56.074 17.1481 56.074 17.4959C56.074 18.4516 55.9226 19.3821 55.6183 20.2876C55.3211 21.181 54.8232 21.9945 54.1627 22.6656C52.7285 24.2143 50.8231 24.9898 48.448 24.9898ZM62.2784 24.9898C61.2208 24.9898 60.2725 24.7365 59.4321 24.2291C58.5954 23.7258 57.9149 23.0003 57.4661 22.1332C56.9949 21.2425 56.7593 20.2403 56.7593 19.1251C56.7593 18.0535 56.9809 17.0691 57.4225 16.171C57.8431 15.2974 58.4927 14.5542 59.3021 14.0204C60.113 13.485 61.0546 13.2169 62.1262 13.2169C63.2119 13.2169 64.1542 13.4592 64.9503 13.9444C65.7422 14.4242 66.3795 15.1214 66.7863 15.9532C67.2139 16.8084 67.4274 17.7854 67.4274 18.8858C67.4274 19.103 67.4052 19.292 67.3624 19.4508H58.6064C58.65 20.2905 58.8531 21.0003 59.215 21.5793C59.5768 22.159 60.0369 22.5933 60.5945 22.8828C61.1334 23.1677 61.7338 23.3167 62.3433 23.317C63.7628 23.317 64.8566 22.6509 65.6239 21.3186L67.1888 22.0792C66.7103 22.9773 66.0626 23.6863 65.2443 24.2077C64.4253 24.7291 63.4371 24.9898 62.2776 24.9898H62.2784ZM65.4717 17.9302C65.4366 17.4452 65.3035 16.9724 65.0803 16.5403C64.8492 16.0765 64.4836 15.6858 63.9836 15.3675C63.4844 15.0485 62.8574 14.8897 62.1048 14.8897C61.2356 14.8897 60.5 15.1681 59.8996 15.7257C59.2984 16.2833 58.9033 17.0181 58.715 17.9302H65.4717ZM68.5905 13.564H70.3505V15.1932H70.4376C70.7566 14.629 71.2345 14.1578 71.8718 13.7819C72.4813 13.4131 73.18 13.2177 73.8924 13.2169C74.7033 13.2169 75.4094 13.4126 76.0105 13.8033C76.5957 14.1752 77.0481 14.7227 77.3029 15.3675C77.684 14.7259 78.2178 14.1886 78.8568 13.8033C79.5015 13.4119 80.2511 13.2169 81.1056 13.2169C82.3803 13.2169 83.3397 13.6039 83.9844 14.3786C84.6284 15.1541 84.9511 16.2072 84.9511 17.5395V24.6419H83.1262V17.8216C83.1262 16.7936 82.9157 16.0477 82.4963 15.5839C82.0753 15.1208 81.4527 14.8897 80.6278 14.8897C80.0768 14.8897 79.5776 15.0485 79.1286 15.3675C78.6796 15.6858 78.328 16.1134 78.0747 16.6489C77.8195 17.1923 77.6895 17.7862 77.6944 18.3866V24.6419H75.848V17.8438C75.848 16.801 75.6376 16.0477 75.2173 15.5839C74.7971 15.1208 74.1819 14.8897 73.371 14.8897C72.8201 14.8897 72.3208 15.0522 71.8718 15.3778C71.4228 15.7035 71.0713 16.1385 70.8179 16.6813C70.5634 17.229 70.4335 17.8263 70.4376 18.4302V24.6419H68.5913L68.5905 13.564ZM86.6143 13.564H88.3742V15.1932H88.4606C88.7796 14.629 89.2582 14.1578 89.8948 13.7819C90.5043 13.4131 91.203 13.2177 91.9154 13.2169C92.7263 13.2169 93.4324 13.4126 94.0335 13.8033C94.6187 14.1752 95.0711 14.7227 95.3259 15.3675C95.707 14.7259 96.2408 14.1886 96.8798 13.8033C97.5245 13.4119 98.2741 13.2169 99.1286 13.2169C100.403 13.2169 101.363 13.6039 102.007 14.3786C102.652 15.1541 102.975 16.2072 102.975 17.5395V24.6419H101.149V17.8216C101.149 16.7936 100.939 16.0477 100.519 15.5839C100.099 15.1208 99.4765 14.8897 98.6508 14.8897C98.1006 14.8897 97.6006 15.0485 97.1516 15.3675C96.7026 15.6858 96.351 16.1134 96.0977 16.6489C95.8425 17.1923 95.7125 17.7862 95.7174 18.3866V24.6419H93.871V17.8438C93.871 16.801 93.6606 16.0477 93.2411 15.5839C92.8201 15.1208 92.2049 14.8897 91.394 14.8897C90.8438 14.8897 90.3438 15.0522 89.8948 15.3778C89.4458 15.7035 89.0943 16.1385 88.8409 16.6813C88.5864 17.229 88.4565 17.8263 88.4606 18.4302V24.6419H86.6143V13.564ZM108.07 24.9898C107.259 24.9898 106.535 24.8303 105.897 24.5119C105.26 24.1936 104.767 23.755 104.42 23.1974C104.073 22.6405 103.899 22.0069 103.899 21.2971C103.899 20.1244 104.34 19.2086 105.224 18.5498C106.108 17.8903 107.223 17.5609 108.569 17.5609C109.236 17.5609 109.856 17.6333 110.427 17.7781C111 17.9228 111.438 18.0897 111.742 18.278V17.6045C111.742 16.7788 111.452 16.1164 110.873 15.6171C110.294 15.1171 109.562 14.8675 108.679 14.8675C108.082 14.8612 107.494 14.9991 106.962 15.2693C106.456 15.5235 106.028 15.9102 105.724 16.3882L104.333 15.3446C104.768 14.6785 105.365 14.1571 106.125 13.7812C106.886 13.4045 107.729 13.2162 108.657 13.2162C110.164 13.2162 111.348 13.6106 112.209 14.4C113.071 15.1888 113.502 16.2641 113.502 17.6252V24.6412H111.742V23.0556H111.656C111.337 23.5917 110.859 24.0474 110.222 24.4241C109.585 24.8007 108.867 24.9898 108.07 24.9898ZM108.244 23.3606C108.867 23.3606 109.446 23.2011 109.982 22.8828C110.511 22.5712 110.952 22.1303 111.264 21.6014C111.582 21.0652 111.742 20.4789 111.742 19.8415C111.395 19.6103 110.966 19.422 110.46 19.2773C109.937 19.1303 109.395 19.0572 108.852 19.0601C107.838 19.0601 107.074 19.2699 106.56 19.6901C106.046 20.1096 105.789 20.6524 105.789 21.3186C105.789 21.9271 106.021 22.419 106.484 22.7956C106.947 23.1723 107.535 23.3606 108.244 23.3606Z" fill="black"/>
</g>
<defs>
<clipPath id="clip0_14817_2615">
<rect width="18.5136" height="18.5136" fill="white" transform="translate(17.666 8.74219)"/>
</clipPath>
<clipPath id="clip1_14817_2615">
<rect width="76.0682" height="17.7246" fill="white" transform="translate(38.9102 8.74219)"/>
</clipPath>
</defs>
</svg>
