<svg width="232" height="57" viewBox="0 0 232 57" fill="none" xmlns="http://www.w3.org/2000/svg">
<rect x="0.978149" y="0.291748" width="230.836" height="56.0329" rx="28.0165" fill="white"/>
<g clip-path="url(#clip0_8717_151)">
<path d="M47.5234 21.9563H48.5504L51.4775 19.0293L51.6213 17.7865C49.9445 16.3065 47.918 15.2784 45.7334 14.7993C43.5488 14.3202 41.278 14.4059 39.1358 15.0484C36.9935 15.6909 35.0503 16.8689 33.4899 18.4712C31.9295 20.0734 30.8033 22.047 30.2177 24.2056C30.5437 24.0719 30.905 24.0502 31.2447 24.1439L37.0989 23.1785C37.0989 23.1785 37.3967 22.6855 37.5508 22.7163C38.8051 21.3387 40.5386 20.4927 42.3964 20.3514C44.2541 20.2101 46.0956 20.7843 47.5439 21.9563H47.5234Z" fill="#0F0F0F" fill-opacity="0.8"/>
<path d="M55.6473 24.2056C54.9745 21.728 53.5931 19.5007 51.6726 17.7969L47.5644 21.9051C48.4206 22.6046 49.1068 23.4895 49.5711 24.4929C50.0355 25.4964 50.2659 26.5921 50.245 27.6976V28.4268C50.7252 28.4268 51.2006 28.5214 51.6442 28.7051C52.0878 28.8889 52.4909 29.1582 52.8304 29.4977C53.1699 29.8372 53.4392 30.2403 53.623 30.6839C53.8067 31.1275 53.9013 31.6029 53.9013 32.0831C53.9013 32.5632 53.8067 33.0387 53.623 33.4823C53.4392 33.9259 53.1699 34.329 52.8304 34.6685C52.4909 35.008 52.0878 35.2773 51.6442 35.4611C51.2006 35.6448 50.7252 35.7394 50.245 35.7394H42.9324L42.2032 36.4788V40.8643L42.9324 41.5935H50.245C52.287 41.6094 54.2799 40.9676 55.9289 39.7631C57.5779 38.5586 58.7954 36.8553 59.4013 34.9051C60.0071 32.955 59.9692 30.8617 59.2932 28.9348C58.6171 27.0078 57.3388 25.3497 55.6473 24.2056Z" fill="#0F0F0F" fill-opacity="0.8"/>
<path d="M35.6096 41.5524H42.9222V35.6983H35.6096C35.0886 35.6982 34.5737 35.5861 34.0998 35.3696L33.0728 35.688L30.1252 38.6151L29.8684 39.6421C31.5214 40.8903 33.5383 41.5614 35.6096 41.5524Z" fill="#0F0F0F" fill-opacity="0.8"/>
<path d="M35.6096 22.5626C33.6283 22.5744 31.7001 23.2048 30.0944 24.3656C28.4887 25.5265 27.2857 27.1599 26.6533 29.0377C26.021 30.9155 25.9909 32.9439 26.5673 34.8396C27.1438 36.7353 28.2979 38.4036 29.8685 39.6115L34.1102 35.3698C33.5711 35.1263 33.0992 34.7556 32.7349 34.2896C32.3707 33.8236 32.1249 33.2762 32.0187 32.6943C31.9125 32.1124 31.949 31.5135 32.1252 30.9488C32.3014 30.3842 32.6119 29.8707 33.0302 29.4524C33.4484 29.0342 33.9619 28.7237 34.5265 28.5475C35.0912 28.3713 35.6901 28.3348 36.272 28.441C36.8539 28.5472 37.4013 28.7929 37.8673 29.1572C38.3333 29.5215 38.704 29.9934 38.9475 30.5324L43.1892 26.2907C42.299 25.1268 41.1515 24.1847 39.8366 23.5379C38.5217 22.8912 37.075 22.5573 35.6096 22.5626Z" fill="#0F0F0F" fill-opacity="0.8"/>
<path d="M79.3002 37.4648C78.0411 37.4808 76.7918 37.2426 75.6271 36.7643C74.4623 36.2861 73.4061 35.5777 72.5217 34.6815C71.6093 33.8234 70.8854 32.785 70.3956 31.6322C69.9059 30.4795 69.6611 29.2375 69.6767 27.9852C69.6617 26.7329 69.9068 25.4911 70.3965 24.3385C70.8862 23.1858 71.6098 22.1473 72.5217 21.2888C73.4018 20.3834 74.4561 19.6655 75.621 19.1783C76.786 18.6911 78.0375 18.4448 79.3002 18.4542C80.5033 18.4381 81.6976 18.6614 82.8137 19.111C83.9297 19.5606 84.9453 20.2276 85.8014 21.0731L83.9732 22.9321C82.7213 21.7222 81.041 21.0575 79.3002 21.0834C78.3971 21.0723 77.5016 21.2492 76.6706 21.6028C75.8396 21.9565 75.0912 22.4791 74.473 23.1375C73.8306 23.7749 73.3238 24.5357 72.9831 25.3741C72.6425 26.2125 72.475 27.1111 72.4908 28.016C72.4833 28.9105 72.6548 29.7975 72.9952 30.6247C73.3356 31.4519 73.8381 32.2027 74.473 32.8328C75.7449 34.1003 77.4612 34.8213 79.2567 34.8424C81.0521 34.8635 82.7849 34.183 84.0862 32.9458C84.8918 32.0636 85.3861 30.9416 85.4932 29.7517H79.331V27.1224H88.0506C88.1363 27.652 88.1707 28.1885 88.1533 28.7246C88.2075 29.8343 88.0362 30.9434 87.6496 31.9849C87.263 33.0264 86.6692 33.9787 85.9041 34.7842C85.0534 35.6699 84.0256 36.3664 82.8878 36.8282C81.7499 37.2901 80.5275 37.507 79.3002 37.4648ZM99.5741 35.7188C98.4038 36.8405 96.8455 37.4668 95.2245 37.4668C93.6035 37.4668 92.0452 36.8405 90.875 35.7188C90.2925 35.1541 89.8338 34.4745 89.5279 33.723C89.2221 32.9716 89.0757 32.1648 89.0982 31.3539C89.0764 30.543 89.223 29.7364 89.5288 28.9851C89.8347 28.2338 90.293 27.554 90.875 26.9889C92.0464 25.8696 93.6043 25.2449 95.2245 25.2449C96.8448 25.2449 98.4026 25.8696 99.5741 26.9889C100.156 27.554 100.614 28.2338 100.92 28.9851C101.226 29.7364 101.373 30.543 101.351 31.3539C101.372 32.1656 101.224 32.9728 100.916 33.7243C100.609 34.4757 100.148 35.155 99.5638 35.7188H99.5741ZM92.7955 34.0037C93.1068 34.3361 93.483 34.601 93.9008 34.7822C94.3186 34.9633 94.7691 35.0568 95.2245 35.0568C95.6799 35.0568 96.1304 34.9633 96.5482 34.7822C96.966 34.601 97.3422 34.3361 97.6535 34.0037C97.9929 33.6529 98.2586 33.2377 98.435 32.7826C98.6114 32.3275 98.6949 31.8417 98.6805 31.3539C98.6957 30.8644 98.6126 30.3768 98.4362 29.9199C98.2598 29.4631 97.9936 29.0462 97.6535 28.6938C97.3381 28.3648 96.9594 28.103 96.5402 27.9242C96.121 27.7453 95.67 27.6531 95.2142 27.6531C94.7585 27.6531 94.3075 27.7453 93.8883 27.9242C93.4691 28.103 93.0904 28.3648 92.775 28.6938C92.4348 29.0462 92.1687 29.4631 91.9923 29.9199C91.8159 30.3768 91.7328 30.8644 91.748 31.3539C91.735 31.8425 91.8201 32.3287 91.9983 32.7838C92.1764 33.2389 92.444 33.6537 92.7853 34.0037H92.7955ZM112.946 35.7188C111.776 36.8405 110.218 37.4668 108.597 37.4668C106.976 37.4668 105.417 36.8405 104.247 35.7188C103.665 35.1541 103.206 34.4745 102.9 33.723C102.594 32.9716 102.448 32.1648 102.47 31.3539C102.448 30.543 102.595 29.7364 102.901 28.9851C103.207 28.2338 103.665 27.554 104.247 26.9889C105.417 25.8672 106.976 25.241 108.597 25.241C110.218 25.241 111.776 25.8672 112.946 26.9889C113.528 27.554 113.987 28.2338 114.292 28.9851C114.598 29.7364 114.745 30.543 114.723 31.3539C114.745 32.1648 114.599 32.9716 114.293 33.723C113.987 34.4745 113.529 35.1541 112.946 35.7188ZM106.168 34.0037C106.479 34.3361 106.855 34.601 107.273 34.7822C107.691 34.9633 108.141 35.0568 108.597 35.0568C109.052 35.0568 109.503 34.9633 109.92 34.7822C110.338 34.601 110.714 34.3361 111.026 34.0037C111.365 33.6529 111.631 33.2377 111.807 32.7826C111.984 32.3275 112.067 31.8417 112.053 31.3539C112.068 30.8644 111.985 30.3768 111.808 29.9199C111.632 29.4631 111.366 29.0462 111.026 28.6938C110.71 28.3648 110.332 28.103 109.912 27.9242C109.493 27.7453 109.042 27.6531 108.586 27.6531C108.131 27.6531 107.68 27.7453 107.26 27.9242C106.841 28.103 106.463 28.3648 106.147 28.6938C105.807 29.0462 105.541 29.4631 105.364 29.9199C105.188 30.3768 105.105 30.8644 105.12 31.3539C105.107 31.8425 105.192 32.3287 105.37 32.7838C105.549 33.2389 105.816 33.6537 106.157 34.0037H106.168ZM121.738 42.9492C120.507 42.9884 119.3 42.6041 118.318 41.8606C117.446 41.2052 116.759 40.3346 116.325 39.334L118.667 38.3583C118.922 38.9563 119.32 39.482 119.827 39.8886C120.37 40.3261 121.051 40.5556 121.748 40.5357C122.19 40.5626 122.632 40.4939 123.045 40.3344C123.458 40.1749 123.832 39.9283 124.141 39.6113C124.76 38.8649 125.065 37.9079 124.993 36.941V36.0577H124.901C124.51 36.5226 124.015 36.8899 123.457 37.1306C122.899 37.3712 122.293 37.4786 121.686 37.4443C120.915 37.4466 120.152 37.289 119.445 36.9814C118.738 36.6738 118.102 36.2229 117.578 35.6572C117.01 35.096 116.561 34.4253 116.259 33.6856C115.957 32.9459 115.808 32.1527 115.822 31.3539C115.808 30.5504 115.956 29.7524 116.258 29.0076C116.56 28.2628 117.009 27.5867 117.578 27.0197C118.101 26.4517 118.736 25.9985 119.443 25.6891C120.151 25.3797 120.914 25.2208 121.686 25.2224C122.34 25.2213 122.985 25.3651 123.576 25.6435C124.087 25.8668 124.543 26.1999 124.911 26.6192H125.004V25.6435H127.551V36.5815C127.618 37.4468 127.508 38.3167 127.227 39.1378C126.946 39.959 126.501 40.7142 125.918 41.3573C125.363 41.8884 124.707 42.3029 123.989 42.5763C123.271 42.8497 122.505 42.9765 121.738 42.9492ZM121.923 35.0615C122.361 35.0712 122.796 34.9841 123.198 34.8066C123.599 34.6291 123.956 34.3655 124.244 34.0345C124.877 33.3083 125.211 32.3685 125.178 31.4052C125.216 30.4258 124.882 29.4681 124.244 28.7246C123.956 28.393 123.599 28.129 123.198 27.9515C122.797 27.7739 122.361 27.6872 121.923 27.6976C121.472 27.6883 121.025 27.7751 120.61 27.9522C120.196 28.1293 119.824 28.3926 119.519 28.7246C118.84 29.4414 118.471 30.3973 118.492 31.3847C118.482 31.869 118.567 32.3506 118.743 32.8018C118.92 33.253 119.183 33.6649 119.519 34.0139C119.823 34.3491 120.194 34.6159 120.608 34.7966C121.022 34.9772 121.471 35.0675 121.923 35.0615ZM132.08 19.1423V37.0951H129.399V19.1423H132.08ZM139.434 37.4648C138.631 37.4854 137.833 37.3401 137.089 37.0379C136.344 36.7357 135.671 36.2831 135.11 35.7086C134.541 35.1382 134.093 34.4581 133.795 33.7095C133.496 32.9609 133.353 32.1595 133.374 31.3539C133.344 30.5463 133.476 29.7409 133.764 28.9857C134.052 28.2305 134.488 27.5409 135.048 26.9581C135.576 26.4019 136.214 25.9621 136.921 25.6667C137.629 25.3714 138.39 25.227 139.156 25.243C139.861 25.2355 140.56 25.3718 141.211 25.6435C141.796 25.88 142.33 26.2289 142.782 26.6705C143.17 27.045 143.514 27.4618 143.809 27.9133C144.047 28.2944 144.25 28.6967 144.415 29.1149L144.692 29.8133L136.476 33.1923C136.724 33.7632 137.14 34.2455 137.668 34.5755C138.196 34.9055 138.812 35.0678 139.434 35.041C140.039 35.0426 140.634 34.8874 141.162 34.5904C141.689 34.2934 142.131 33.8648 142.443 33.3463L144.497 34.7329C143.973 35.4828 143.302 36.1187 142.525 36.6021C141.601 37.1858 140.526 37.4858 139.434 37.4648ZM136.003 31.169L141.467 28.8992C141.299 28.499 140.998 28.169 140.615 27.9646C140.186 27.7224 139.7 27.5984 139.208 27.6052C138.372 27.6268 137.578 27.9774 137 28.5809C136.653 28.9123 136.384 29.3161 136.212 29.7636C136.04 30.211 135.969 30.6909 136.003 31.169ZM158.732 37.4648C157.592 37.4845 156.46 37.2736 155.403 36.8448C154.347 36.416 153.388 35.7782 152.584 34.9695C151.78 34.1609 151.148 33.1982 150.725 32.1392C150.303 31.0801 150.099 29.9467 150.125 28.8068C150.099 27.6669 150.303 26.5335 150.725 25.4744C151.148 24.4154 151.78 23.4527 152.584 22.6441C153.388 21.8355 154.347 21.1976 155.403 20.7688C156.46 20.34 157.592 20.1291 158.732 20.1488C159.886 20.1127 161.033 20.3379 162.087 20.8074C163.142 21.2769 164.077 21.9786 164.822 22.8602L163.343 24.2981C162.796 23.6098 162.094 23.0605 161.295 22.6946C160.495 22.3288 159.621 22.1568 158.742 22.1926C157.896 22.1736 157.056 22.3257 156.27 22.6399C155.485 22.954 154.771 23.4237 154.172 24.0208C153.549 24.6473 153.062 25.3959 152.742 26.2195C152.422 27.0431 152.276 27.924 152.313 28.8068C152.276 29.6896 152.422 30.5705 152.742 31.3941C153.062 32.2177 153.549 32.9663 154.172 33.5928C154.771 34.1899 155.485 34.6596 156.27 34.9737C157.056 35.2879 157.896 35.44 158.742 35.421C159.724 35.432 160.695 35.2216 161.584 34.8056C162.473 34.3895 163.257 33.7784 163.877 33.0177L165.356 34.4966C164.582 35.4226 163.61 36.1631 162.511 36.6637C161.327 37.2103 160.036 37.4841 158.732 37.4648ZM169.331 37.0951H167.205V20.5083H169.331V37.0951ZM172.802 27.1122C173.916 26.0058 175.423 25.3849 176.993 25.3849C178.563 25.3849 180.069 26.0058 181.183 27.1122C181.728 27.6873 182.154 28.3646 182.436 29.1049C182.718 29.8452 182.85 30.6339 182.826 31.4258C182.85 32.2176 182.718 33.0064 182.436 33.7467C182.154 34.487 181.728 35.1642 181.183 35.7394C180.069 36.8457 178.563 37.4666 176.993 37.4666C175.423 37.4666 173.916 36.8457 172.802 35.7394C172.258 35.1642 171.832 34.487 171.55 33.7467C171.268 33.0064 171.135 32.2176 171.159 31.4258C171.135 30.6339 171.268 29.8452 171.55 29.1049C171.832 28.3646 172.258 27.6873 172.802 27.1122ZM174.384 34.4042C174.719 34.7582 175.123 35.0402 175.57 35.2329C176.018 35.4256 176.5 35.525 176.988 35.525C177.475 35.525 177.957 35.4256 178.405 35.2329C178.853 35.0402 179.256 34.7582 179.591 34.4042C179.963 34.0055 180.251 33.5368 180.44 33.0254C180.629 32.5141 180.714 31.9703 180.69 31.4258C180.714 30.8812 180.629 30.3375 180.44 29.8261C180.251 29.3148 179.963 28.8461 179.591 28.4473C179.256 28.0933 178.853 27.8114 178.405 27.6186C177.957 27.4259 177.475 27.3265 176.988 27.3265C176.5 27.3265 176.018 27.4259 175.57 27.6186C175.123 27.8114 174.719 28.0933 174.384 28.4473C174.013 28.8461 173.724 29.3148 173.535 29.8261C173.347 30.3375 173.262 30.8812 173.285 31.4258C173.264 31.9693 173.352 32.5116 173.542 33.0211C173.732 33.5306 174.022 33.9973 174.394 34.3939L174.384 34.4042ZM194.607 37.0951H192.553V35.5237H192.491C192.125 36.1205 191.608 36.6096 190.991 36.941C190.352 37.3118 189.625 37.5066 188.886 37.5059C188.286 37.5469 187.684 37.4519 187.125 37.2278C186.567 37.0037 186.066 36.6564 185.661 36.2118C184.883 35.2277 184.492 33.9929 184.562 32.7404V25.7565H186.688V32.3501C186.688 34.4658 187.623 35.5237 189.492 35.5237C189.907 35.5366 190.32 35.4502 190.695 35.2715C191.07 35.0929 191.397 34.8272 191.649 34.4966C192.2 33.7983 192.494 32.9315 192.481 32.042V25.7565H194.607V37.0951ZM201.827 37.4648C201.106 37.4672 200.392 37.3133 199.736 37.0136C199.08 36.714 198.497 36.2758 198.027 35.7291C196.962 34.5531 196.392 33.0117 196.435 31.4258C196.392 29.8399 196.962 28.2985 198.027 27.1224C198.497 26.5758 199.08 26.1375 199.736 25.8379C200.392 25.5383 201.106 25.3843 201.827 25.3867C202.635 25.374 203.433 25.5647 204.148 25.9413C204.776 26.2575 205.308 26.7363 205.688 27.3279H205.781L205.688 25.7565V20.5083H207.814V37.0951H205.76V35.5237H205.668C205.288 36.1153 204.756 36.5941 204.127 36.9102C203.419 37.2835 202.628 37.4741 201.827 37.4648ZM202.176 35.5237C202.657 35.5307 203.133 35.4354 203.574 35.2442C204.015 35.0529 204.41 34.7701 204.733 34.4145C205.456 33.5922 205.825 32.5183 205.76 31.4258C205.825 30.3332 205.456 29.2594 204.733 28.4371C204.408 28.0795 204.012 27.7938 203.569 27.5984C203.127 27.4029 202.649 27.3019 202.166 27.3019C201.682 27.3019 201.204 27.4029 200.762 27.5984C200.32 27.7938 199.923 28.0795 199.598 28.4371C199.239 28.8415 198.964 29.3128 198.788 29.8239C198.611 30.335 198.538 30.8759 198.571 31.4155C198.538 31.9551 198.611 32.496 198.788 33.0071C198.964 33.5182 199.239 33.9895 199.598 34.3939C199.922 34.7559 200.319 35.0441 200.764 35.2391C201.209 35.434 201.69 35.531 202.176 35.5237Z" fill="#0F0F0F"/>
</g>
<defs>
<clipPath id="clip0_8717_151">
<rect width="182.836" height="32.0329" fill="white" transform="translate(24.9781 12.2917)"/>
</clipPath>
</defs>
</svg>
