<svg width="177" height="65" viewBox="0 0 177 65" fill="none" xmlns="http://www.w3.org/2000/svg">
<rect x="0.87207" y="0.253906" width="176" height="64.1084" rx="32" fill="white"/>
<path d="M135.372 12.2539C133.967 12.2601 132.621 12.8227 131.63 13.8185C130.638 14.8143 130.082 16.1624 130.082 17.5676C130.082 18.2655 130.219 18.9565 130.486 19.6012C130.753 20.2459 131.144 20.8317 131.638 21.3252C132.131 21.8187 132.717 22.2101 133.362 22.4772C134.006 22.7442 134.697 22.8817 135.395 22.8817C136.805 22.8816 138.156 22.3216 139.152 21.3251C140.149 20.3285 140.709 18.9769 140.709 17.5676C140.709 16.1584 140.149 14.807 139.152 13.8105C138.156 12.814 136.804 12.2541 135.395 12.2539C135.388 12.2539 135.38 12.2539 135.372 12.2539ZM134.703 13.5368C134.724 13.5368 134.745 13.5388 134.764 13.5418C135.028 13.5937 135.053 14.0094 134.788 14.0758C132.89 14.4554 131.599 16.2014 131.903 18.0992C131.903 18.4787 131.448 18.6298 131.448 18.1744C131.068 15.9729 132.434 13.9997 134.635 13.5442C134.659 13.5394 134.682 13.5372 134.703 13.5368ZM124.312 15.7452C123.704 15.7452 123.101 15.865 122.539 16.0977C121.978 16.3304 121.467 16.6716 121.037 17.1016C120.607 17.5317 120.266 18.0423 120.033 18.6042C119.8 19.1661 119.681 19.7684 119.681 20.3766C119.681 20.9847 119.801 21.5869 120.033 22.1488C120.266 22.7107 120.607 23.2212 121.037 23.6512C121.467 24.0813 121.978 24.4224 122.54 24.6551C123.101 24.8878 123.704 25.0076 124.312 25.0075C125.54 25.0074 126.718 24.5194 127.586 23.651C128.454 22.7825 128.942 21.6047 128.942 20.3766C128.942 19.7684 128.822 19.1663 128.59 18.6044C128.357 18.0425 128.016 17.532 127.586 17.1019C127.156 16.6719 126.646 16.3307 126.084 16.0979C125.522 15.8651 124.92 15.7453 124.312 15.7452ZM123.608 16.8762C123.626 16.8762 123.642 16.8763 123.659 16.879C123.887 16.9164 123.97 17.273 123.704 17.3395C122.034 17.719 120.972 19.2382 121.2 20.9083C121.276 21.136 120.82 21.2871 120.744 20.9835C120.44 19.0097 121.579 17.2645 123.553 16.8849C123.572 16.8801 123.59 16.8772 123.608 16.8762ZM131.903 18.8584C132.206 18.8584 132.206 19.3892 131.903 19.3892C131.523 19.3892 131.523 18.9343 131.903 18.8584ZM121.275 21.591C121.579 21.591 121.579 22.0467 121.275 22.0467C120.971 22.0467 120.971 21.591 121.275 21.591ZM131.122 26.5257C129.998 26.5317 128.923 26.9822 128.131 27.7786C127.338 28.5751 126.893 29.6527 126.893 30.7761C126.893 31.9036 127.341 32.9849 128.138 33.7822C128.935 34.5795 130.016 35.0275 131.144 35.0277C131.702 35.0278 132.255 34.9179 132.771 34.7042C133.287 34.4906 133.755 34.1774 134.15 33.7826C134.545 33.3878 134.858 32.9191 135.072 32.4032C135.285 31.8874 135.395 31.3345 135.395 30.7761C135.395 29.6487 134.947 28.5675 134.15 27.7704C133.352 26.9733 132.271 26.5256 131.144 26.5257C131.136 26.5257 131.129 26.5257 131.122 26.5257ZM130.618 27.5796C130.795 27.6024 130.878 27.9012 130.612 27.9676C129.094 28.2712 128.107 29.6376 128.335 31.1559C128.335 31.4595 127.956 31.5355 127.956 31.3078C127.728 29.5618 128.791 27.9674 130.537 27.5878C130.565 27.5784 130.593 27.5763 130.618 27.5796ZM128.335 31.7635C128.639 31.7635 128.639 32.2192 128.335 32.2192C128.107 32.2192 128.107 31.7635 128.335 31.7635Z" fill="black"/>
<path d="M24.8719 29.3196H26.7212V36.1252L33.9584 29.3196H36.4119L27.6952 37.4567L37.09 47.4556H34.6858L26.7212 38.9979V47.4556H24.8719V29.3196Z" fill="white"/>
<path d="M45.8805 33.6965C47.9435 33.6965 49.6531 34.4445 51.0093 35.9404C52.2422 37.3048 52.8587 38.9199 52.8587 40.7857C52.8587 42.6597 52.2052 44.2995 50.8984 45.705C49.5997 47.1023 47.9271 47.8009 45.8805 47.8009C43.8256 47.8009 42.1448 47.1023 40.8379 45.705C39.5392 44.2995 38.8899 42.6597 38.8899 40.7857C38.8899 38.9282 39.5063 37.3172 40.7392 35.9527C42.0954 34.4486 43.8092 33.6965 45.8805 33.6965ZM45.8805 35.3856C44.4503 35.3856 43.2215 35.9158 42.1941 36.9761C41.1667 38.0364 40.6529 39.3186 40.6529 40.8227C40.6529 41.7926 40.8872 42.6967 41.3557 43.5351C41.8242 44.3735 42.4571 45.0228 43.2544 45.4831C44.0516 45.9352 44.927 46.1612 45.8805 46.1612C46.8339 46.1612 47.7093 45.9352 48.5065 45.4831C49.3038 45.0228 49.9367 44.3735 50.4052 43.5351C50.8737 42.6967 51.108 41.7926 51.108 40.8227C51.108 39.3186 50.5901 38.0364 49.5545 36.9761C48.5271 35.9158 47.3024 35.3856 45.8805 35.3856Z" fill="white"/>
<path d="M57.5558 29.0605H59.2942V34.0415H62.0312V35.521H59.2942V47.4555H57.5558V35.521H55.2009V34.0415H57.5558V29.0605Z" fill="white"/>
<path d="M77.9972 34.0417V47.4557H76.2958V45.1502C75.5725 46.0297 74.7588 46.6913 73.8547 47.1352C72.9588 47.579 71.9766 47.8009 70.908 47.8009C69.0094 47.8009 67.386 47.1146 66.0381 45.742C64.6983 44.3611 64.0284 42.6844 64.0284 40.7118C64.0284 38.7802 64.7065 37.1281 66.0627 35.7555C67.4189 34.3828 69.0505 33.6965 70.9574 33.6965C72.0588 33.6965 73.0533 33.9308 73.941 34.3993C74.8369 34.8678 75.6218 35.5705 76.2958 36.5076V34.0417H77.9972ZM71.093 35.361C70.1313 35.361 69.2436 35.5993 68.4299 36.076C67.6162 36.5445 66.9669 37.2062 66.4819 38.061C66.0052 38.9158 65.7668 39.82 65.7668 40.7734C65.7668 41.7186 66.0093 42.6228 66.4942 43.4858C66.9792 44.3488 67.6285 45.0228 68.4422 45.5077C69.2642 45.9845 70.1436 46.2228 71.0806 46.2228C72.0259 46.2228 72.9218 45.9845 73.7684 45.5077C74.615 45.031 75.2643 44.3858 75.7164 43.5721C76.1766 42.7584 76.4068 41.8419 76.4068 40.8227C76.4068 39.2693 75.8931 37.9706 74.8657 36.9267C73.8465 35.8829 72.5889 35.361 71.093 35.361Z" fill="white"/>
<path d="M81.8932 34.0417H83.6193V36.4459C84.3097 35.5253 85.0741 34.839 85.9125 34.387C86.7508 33.9267 87.6632 33.6965 88.6495 33.6965C89.6523 33.6965 90.5399 33.9513 91.3126 34.4609C92.0934 34.9705 92.6688 35.6568 93.0386 36.5199C93.4085 37.3829 93.5934 38.7268 93.5934 40.5515V47.4557H91.8797V41.057C91.8797 39.5117 91.8139 38.4802 91.6824 37.9624C91.477 37.0747 91.0906 36.4089 90.5235 35.9651C89.9564 35.513 89.2166 35.287 88.3043 35.287C87.2604 35.287 86.3234 35.6322 85.4933 36.3226C84.6713 37.013 84.1289 37.8679 83.8658 38.8871C83.7014 39.5528 83.6193 40.7693 83.6193 42.5364V47.4557H81.8932V34.0417Z" fill="white"/>
<path d="M97.8843 28.5181C98.2789 28.5181 98.6159 28.6578 98.8953 28.9373C99.1748 29.2167 99.3145 29.5537 99.3145 29.9482C99.3145 30.3345 99.1748 30.6674 98.8953 30.9469C98.6159 31.2263 98.2789 31.3661 97.8843 31.3661C97.498 31.3661 97.1651 31.2263 96.8857 30.9469C96.6062 30.6674 96.4665 30.3345 96.4665 29.9482C96.4665 29.5537 96.6062 29.2167 96.8857 28.9373C97.1651 28.6578 97.498 28.5181 97.8843 28.5181ZM97.0213 34.0415H98.7597V47.4555H97.0213V34.0415Z" fill="white"/>
<path d="M109.634 29.3196H113.246C115.318 29.3196 116.715 29.41 117.438 29.5908C118.474 29.8456 119.32 30.3717 119.978 31.1689C120.636 31.958 120.964 32.9525 120.964 34.1526C120.964 35.3608 120.644 36.3595 120.003 37.1485C119.362 37.9294 118.478 38.4554 117.352 38.7266C116.53 38.9239 114.993 39.0225 112.741 39.0225H111.446V47.4556H109.634V29.3196ZM111.446 31.0826V37.2471L114.516 37.2841C115.757 37.2841 116.666 37.1732 117.241 36.9512C117.816 36.7211 118.268 36.3553 118.597 35.854C118.926 35.3444 119.09 34.7772 119.09 34.1526C119.09 33.5443 118.926 32.9895 118.597 32.4881C118.268 31.9785 117.833 31.6169 117.29 31.4032C116.756 31.1895 115.877 31.0826 114.652 31.0826L111.446 31.0826Z" fill="white"/>
<path d="M137.67 34.0417V47.4557H135.969V45.1502C135.246 46.0297 134.432 46.6913 133.528 47.1352C132.632 47.579 131.65 47.8009 130.581 47.8009C128.682 47.8009 127.059 47.1146 125.711 45.742C124.371 44.3611 123.702 42.6844 123.702 40.7118C123.702 38.7802 124.38 37.1281 125.736 35.7555C127.092 34.3828 128.724 33.6965 130.63 33.6965C131.732 33.6965 132.726 33.9308 133.614 34.3993C134.51 34.8678 135.295 35.5705 135.969 36.5076V34.0417H137.67ZM130.766 35.361C129.804 35.361 128.917 35.5993 128.103 36.076C127.289 36.5445 126.64 37.2062 126.155 38.061C125.678 38.9158 125.44 39.82 125.44 40.7734C125.44 41.7186 125.682 42.6228 126.167 43.4858C126.652 44.3488 127.302 45.0228 128.115 45.5077C128.937 45.9845 129.817 46.2228 130.754 46.2228C131.699 46.2228 132.595 45.9845 133.441 45.5077C134.288 45.031 134.937 44.3858 135.389 43.5721C135.85 42.7584 136.08 41.8419 136.08 40.8227C136.08 39.2693 135.566 37.9706 134.539 36.9267C133.52 35.8829 132.262 35.361 130.766 35.361Z" fill="white"/>
<path d="M140.124 34.0415H141.948L146.559 44.3732L151.035 34.0415H152.872L144.87 52.3624H143.046L145.635 46.4445L140.124 34.0415Z" fill="white"/>
<path d="M135.372 12.2539C133.967 12.2601 132.621 12.8227 131.63 13.8185C130.638 14.8143 130.082 16.1624 130.082 17.5676C130.082 18.2655 130.219 18.9565 130.486 19.6012C130.753 20.2459 131.144 20.8317 131.638 21.3252C132.131 21.8187 132.717 22.2101 133.362 22.4771C134.006 22.7442 134.697 22.8817 135.395 22.8817C136.805 22.8816 138.156 22.3216 139.152 21.325C140.149 20.3285 140.709 18.9769 140.709 17.5676C140.709 16.1584 140.149 14.807 139.152 13.8105C138.156 12.814 136.804 12.2541 135.395 12.2539C135.388 12.2539 135.38 12.2539 135.372 12.2539ZM134.703 13.5368C134.724 13.5368 134.745 13.5388 134.764 13.5418C135.028 13.5937 135.053 14.0094 134.788 14.0758C132.89 14.4554 131.599 16.2014 131.903 18.0992C131.903 18.4787 131.447 18.6298 131.447 18.1744C131.068 15.9729 132.434 13.9997 134.635 13.5442C134.659 13.5394 134.682 13.5372 134.703 13.5368ZM124.312 15.7452C123.704 15.7452 123.101 15.865 122.539 16.0977C121.978 16.3304 121.467 16.6716 121.037 17.1016C120.607 17.5317 120.266 18.0423 120.033 18.6042C119.8 19.1661 119.681 19.7684 119.681 20.3766C119.681 20.9847 119.801 21.5869 120.033 22.1488C120.266 22.7107 120.607 23.2212 121.037 23.6512C121.467 24.0812 121.978 24.4224 122.54 24.6551C123.101 24.8878 123.704 25.0075 124.312 25.0075C125.54 25.0074 126.718 24.5194 127.586 23.6509C128.454 22.7825 128.942 21.6047 128.942 20.3766C128.942 19.7684 128.822 19.1663 128.59 18.6044C128.357 18.0425 128.016 17.532 127.586 17.1019C127.156 16.6719 126.646 16.3307 126.084 16.0979C125.522 15.8651 124.92 15.7453 124.312 15.7452ZM123.608 16.8762C123.626 16.8762 123.642 16.8763 123.659 16.879C123.887 16.9164 123.97 17.273 123.704 17.3394C122.034 17.719 120.972 19.2382 121.2 20.9083C121.276 21.136 120.82 21.2871 120.744 20.9834C120.44 19.0097 121.579 17.2645 123.553 16.8849C123.572 16.8801 123.59 16.8772 123.608 16.8762ZM131.903 18.8584C132.206 18.8584 132.206 19.3892 131.903 19.3892C131.523 19.3892 131.523 18.9343 131.903 18.8584ZM121.275 21.591C121.579 21.591 121.579 22.0467 121.275 22.0467C120.971 22.0467 120.971 21.591 121.275 21.591ZM131.122 26.5257C129.998 26.5317 128.923 26.9822 128.131 27.7786C127.338 28.575 126.893 29.6527 126.893 30.7761C126.893 31.9035 127.341 32.9848 128.138 33.7822C128.935 34.5795 130.016 35.0275 131.144 35.0277C131.702 35.0278 132.255 34.9178 132.771 34.7042C133.287 34.4906 133.755 34.1774 134.15 33.7826C134.545 33.3878 134.858 32.9191 135.072 32.4032C135.285 31.8873 135.395 31.3345 135.395 30.7761C135.395 29.6487 134.947 28.5675 134.15 27.7704C133.352 26.9733 132.271 26.5256 131.144 26.5257C131.136 26.5257 131.129 26.5257 131.122 26.5257ZM130.618 27.5795C130.795 27.6024 130.878 27.9011 130.612 27.9676C129.094 28.2712 128.107 29.6376 128.335 31.1559C128.335 31.4595 127.956 31.5355 127.956 31.3078C127.728 29.5618 128.791 27.9674 130.537 27.5878C130.565 27.5783 130.593 27.5763 130.618 27.5795ZM128.335 31.7635C128.639 31.7635 128.639 32.2191 128.335 32.2191C128.107 32.2191 128.107 31.7635 128.335 31.7635Z" fill="black"/>
<path d="M24.8719 29.3196H26.7212V36.1252L33.9584 29.3196H36.4118L27.6952 37.4567L37.0899 47.4556H34.6858L26.7212 38.9979V47.4556H24.8719V29.3196Z" fill="black"/>
<path d="M45.8804 33.6963C47.9435 33.6963 49.6531 34.4442 51.0093 35.9402C52.2422 37.3046 52.8587 38.9197 52.8587 40.7855C52.8587 42.6595 52.2052 44.2992 50.8984 45.7048C49.5997 47.102 47.9271 47.8007 45.8804 47.8007C43.8256 47.8007 42.1448 47.102 40.8379 45.7048C39.5392 44.2992 38.8899 42.6595 38.8899 40.7855C38.8899 38.9279 39.5063 37.3169 40.7392 35.9525C42.0954 34.4484 43.8092 33.6963 45.8804 33.6963ZM45.8804 35.3854C44.4503 35.3854 43.2215 35.9155 42.1941 36.9758C41.1667 38.0361 40.6529 39.3183 40.6529 40.8225C40.6529 41.7923 40.8872 42.6965 41.3557 43.5348C41.8242 44.3732 42.4571 45.0225 43.2544 45.4828C44.0516 45.9349 44.927 46.1609 45.8804 46.1609C46.8339 46.1609 47.7093 45.9349 48.5065 45.4828C49.3038 45.0225 49.9367 44.3732 50.4052 43.5348C50.8737 42.6965 51.108 41.7923 51.108 40.8225C51.108 39.3183 50.5901 38.0361 49.5545 36.9758C48.5271 35.9155 47.3024 35.3854 45.8804 35.3854Z" fill="black"/>
<path d="M57.5558 29.0605H59.2942V34.0415H62.0312V35.521H59.2942V47.4554H57.5558V35.521H55.2009V34.0415H57.5558V29.0605Z" fill="black"/>
<path d="M77.9972 34.0415V47.4555H76.2958V45.1499C75.5725 46.0294 74.7588 46.6911 73.8547 47.1349C72.9588 47.5788 71.9766 47.8007 70.908 47.8007C69.0094 47.8007 67.386 47.1144 66.0381 45.7417C64.6983 44.3609 64.0284 42.6841 64.0284 40.7115C64.0284 38.78 64.7065 37.1279 66.0627 35.7552C67.4189 34.3826 69.0505 33.6963 70.9574 33.6963C72.0587 33.6963 73.0533 33.9305 73.941 34.399C74.8369 34.8675 75.6218 35.5703 76.2958 36.5073V34.0415H77.9972ZM71.093 35.3607C70.1313 35.3607 69.2436 35.5991 68.4299 36.0758C67.6162 36.5443 66.9669 37.2059 66.4819 38.0608C66.0052 38.9156 65.7668 39.8197 65.7668 40.7731C65.7668 41.7184 66.0093 42.6225 66.4942 43.4855C66.9792 44.3486 67.6285 45.0225 68.4422 45.5075C69.2642 45.9842 70.1436 46.2226 71.0806 46.2226C72.0259 46.2226 72.9218 45.9842 73.7684 45.5075C74.615 45.0308 75.2643 44.3855 75.7164 43.5718C76.1766 42.7581 76.4068 41.8417 76.4068 40.8225C76.4068 39.269 75.8931 37.9703 74.8656 36.9265C73.8464 35.8826 72.5889 35.3607 71.093 35.3607Z" fill="black"/>
<path d="M81.8932 34.0415H83.6193V36.4457C84.3097 35.5251 85.0741 34.8388 85.9124 34.3867C86.7508 33.9264 87.6632 33.6963 88.6495 33.6963C89.6522 33.6963 90.5399 33.9511 91.3126 34.4607C92.0934 34.9703 92.6687 35.6566 93.0386 36.5196C93.4085 37.3827 93.5934 38.7265 93.5934 40.5512V47.4555H91.8797V41.0567C91.8797 39.5115 91.8139 38.4799 91.6824 37.9621C91.4769 37.0744 91.0906 36.4087 90.5235 35.9648C89.9564 35.5128 89.2166 35.2867 88.3043 35.2867C87.2604 35.2867 86.3234 35.6319 85.4933 36.3224C84.6713 37.0128 84.1289 37.8676 83.8658 38.8868C83.7014 39.5526 83.6193 40.769 83.6193 42.5362V47.4555H81.8932V34.0415Z" fill="black"/>
<path d="M97.8843 28.5181C98.2789 28.5181 98.6159 28.6578 98.8953 28.9373C99.1748 29.2167 99.3145 29.5537 99.3145 29.9482C99.3145 30.3345 99.1748 30.6674 98.8953 30.9469C98.6159 31.2263 98.2789 31.3661 97.8843 31.3661C97.498 31.3661 97.1651 31.2263 96.8857 30.9469C96.6062 30.6674 96.4665 30.3345 96.4665 29.9482C96.4665 29.5537 96.6062 29.2167 96.8857 28.9373C97.1651 28.6578 97.498 28.5181 97.8843 28.5181ZM97.0213 34.0415H98.7597V47.4554H97.0213V34.0415Z" fill="black"/>
<path d="M109.634 29.3196H113.246C115.318 29.3196 116.715 29.41 117.438 29.5908C118.474 29.8456 119.32 30.3717 119.978 31.1689C120.636 31.958 120.964 32.9525 120.964 34.1526C120.964 35.3608 120.644 36.3594 120.003 37.1485C119.362 37.9293 118.478 38.4554 117.352 38.7266C116.53 38.9239 114.993 39.0225 112.741 39.0225H111.446V47.4556H109.634V29.3196ZM111.446 31.0826V37.2471L114.516 37.2841C115.757 37.2841 116.666 37.1732 117.241 36.9512C117.816 36.7211 118.268 36.3553 118.597 35.854C118.926 35.3444 119.09 34.7772 119.09 34.1526C119.09 33.5443 118.926 32.9895 118.597 32.4881C118.268 31.9785 117.833 31.6169 117.29 31.4032C116.756 31.1895 115.877 31.0826 114.652 31.0826L111.446 31.0826Z" fill="black"/>
<path d="M137.669 34.0415V47.4555H135.968V45.1499C135.245 46.0294 134.431 46.6911 133.527 47.1349C132.631 47.5788 131.649 47.8007 130.58 47.8007C128.682 47.8007 127.058 47.1144 125.71 45.7417C124.371 44.3609 123.701 42.6841 123.701 40.7115C123.701 38.78 124.379 37.1279 125.735 35.7552C127.091 34.3826 128.723 33.6963 130.63 33.6963C131.731 33.6963 132.725 33.9305 133.613 34.399C134.509 34.8675 135.294 35.5703 135.968 36.5073V34.0415H137.669ZM130.765 35.3607C129.803 35.3607 128.916 35.5991 128.102 36.0758C127.288 36.5443 126.639 37.2059 126.154 38.0608C125.677 38.9156 125.439 39.8197 125.439 40.7731C125.439 41.7184 125.681 42.6225 126.166 43.4855C126.651 44.3486 127.301 45.0225 128.114 45.5075C128.936 45.9842 129.816 46.2226 130.753 46.2226C131.698 46.2226 132.594 45.9842 133.441 45.5075C134.287 45.0308 134.936 44.3855 135.389 43.5718C135.849 42.7581 136.079 41.8417 136.079 40.8225C136.079 39.269 135.565 37.9703 134.538 36.9265C133.519 35.8826 132.261 35.3607 130.765 35.3607Z" fill="black"/>
<path d="M140.123 34.0415H141.948L146.559 44.3732L151.034 34.0415H152.871L144.87 52.3624H143.045L145.634 46.4445L140.123 34.0415Z" fill="black"/>
</svg>
