<svg width="98" height="65" viewBox="0 0 98 65" fill="none" xmlns="http://www.w3.org/2000/svg">
<rect x="0.367798" y="0.0378418" width="97.3137" height="64.5405" rx="32" fill="white"/>
<path fill-rule="evenodd" clip-rule="evenodd" d="M55.6152 31.1503C55.7515 31.2866 55.9106 31.7184 56.1151 31.9684C51.1156 35.1724 40.1395 42.2402 34.0037 46.7626C36.2989 49.0348 39.1851 50.785 42.4802 51.7622C53.1839 54.8983 64.4781 48.717 67.6142 38.013C69.0462 33.1498 68.5462 28.196 66.5922 23.9236C65.0468 25.3326 63.2736 26.7643 61.365 28.196C61.2965 28.2187 61.2517 28.2642 61.1832 28.3096C59.6833 29.4459 58.115 30.5821 56.4791 31.6957C56.32 31.423 56.1382 31.1503 55.9791 30.8776C57.1154 30.0822 58.2292 29.3095 59.3197 28.5369L59.3655 28.4914C60.6151 27.6051 61.8195 26.7416 62.9331 25.8553C60.6608 27.1961 58.2744 28.2642 55.9109 29.1501C55.8888 28.7184 55.9336 28.2866 55.9109 27.8775C55.6613 28.082 55.3658 28.2866 55.1155 28.4911C54.7747 28.4684 54.5704 28.332 54.2068 28.2411C53.9338 27.8775 53.6611 27.5366 53.3887 27.1958C57.0248 25.6504 60.8196 23.6279 64.8193 20.7645C62.1892 16.9541 58.3305 14.1622 53.8887 12.8557C43.1847 9.71965 31.8902 15.8782 28.7314 26.6049C27.7997 29.8092 27.686 33.0359 28.2769 36.1268C29.4813 35.4899 30.6631 34.9224 31.8902 34.4224V34.8312L31.413 35.4902C30.3839 35.805 29.368 36.1615 28.3678 36.5586C29.1635 40.2628 31.0043 43.6713 33.6174 46.3759C39.2075 41.8309 49.8429 34.7182 55.6152 31.1503Z" fill="black"/>
<path fill-rule="evenodd" clip-rule="evenodd" d="M37.1621 32.5366C37.1167 32.5366 37.0712 32.5593 37.0031 32.5824L37.1621 32.8321V32.5366Z" fill="black"/>
<path fill-rule="evenodd" clip-rule="evenodd" d="M34.3442 33.468C33.8999 33.6212 33.4603 33.7879 33.0262 33.9679V35.0133C33.6397 34.8542 34.2988 34.6724 34.9578 34.5133L34.3442 33.468ZM31.8899 34.4227C29.2992 35.4905 26.7994 36.7862 24.3678 38.5588C26.4358 37.2634 28.822 36.3086 31.4127 35.4905L31.8672 34.8088L31.8899 34.4227ZM53.3884 27.1964C53.6608 27.5373 53.9335 27.9006 54.1838 28.2418C54.5704 28.3554 54.7743 28.469 55.1152 28.4917C55.3655 28.2872 55.6609 28.0827 55.9106 27.8782C55.9333 28.3099 55.8885 28.7417 55.9106 29.1508C58.274 28.2645 60.6605 27.1967 62.9327 25.8783C61.8195 26.7419 60.6147 27.6055 59.3652 28.4917L59.3194 28.5372C58.2289 29.3099 57.115 30.0825 55.9788 30.8779C56.1378 31.1506 56.3196 31.4233 56.4787 31.696C58.0919 30.5825 59.683 29.4462 61.1829 28.3099C61.2514 28.2645 61.2962 28.219 61.3647 28.1963C68.1365 23.0604 73.4091 17.8563 73.6815 13.1973C66.2957 20.4921 59.6145 24.5372 53.3884 27.1964ZM41.6618 33.0138L41.73 32.7868C41.4118 32.3093 41.1164 31.8775 40.8437 31.4457C39.9801 31.6957 39.1393 31.9457 38.2984 32.1953V33.7407C39.3893 33.4907 40.5255 33.2641 41.6618 33.0138ZM55.5921 31.1503C55.7512 31.3094 55.9103 31.7184 56.1148 31.9684C49.502 36.1953 32.5716 47.0808 29.9579 50.126C30.4127 47.7398 47.684 36.059 55.5921 31.1503ZM41.4118 31.2639C41.5709 31.5593 41.7527 31.8548 41.9118 32.1275L42.2299 31.0367C41.9572 31.1048 41.6845 31.1957 41.4118 31.2639ZM50.025 31.0594C49.9793 30.9458 49.9793 30.8094 49.9793 30.6731C50.002 29.4913 51.1837 28.2187 52.7293 28.1505C53.0017 28.1278 53.2293 28.1278 53.4332 28.1278C53.2514 27.8778 53.0472 27.6506 52.8427 27.4233C50.661 28.3323 48.5703 29.0823 46.5023 29.7413L47.2068 31.7866C48.1385 31.5593 49.0703 31.3094 50.025 31.0594Z" fill="#ADACAC"/>
<path fill-rule="evenodd" clip-rule="evenodd" d="M54.5701 29.6504C54.4993 29.535 54.4153 29.4282 54.3198 29.3323C53.2514 29.0823 52.3657 29.4004 52.3657 29.8322C52.3657 30.0367 52.4563 30.1731 52.6154 30.2867C53.2744 30.0822 53.9331 29.8777 54.5701 29.6504Z" fill="black"/>
<path fill-rule="evenodd" clip-rule="evenodd" d="M59.7967 28.196L59.3194 28.5369C59.1149 28.3324 58.9558 28.1733 58.9558 28.196H59.7967ZM50.7517 34.241C50.5478 34.3773 50.3656 34.5133 50.1611 34.6497C50.1384 34.2867 50.1838 33.9228 50.1611 33.5592C50.2975 33.8316 50.4565 34.0364 50.7517 34.241ZM46.0706 38.4903L46.6841 38.0815C47.3432 38.6273 47.9568 39.1042 48.3658 39.3538C49.2291 39.9677 48.8431 40.5813 48.5931 40.7174C48.3204 40.8764 47.5932 40.7401 47.275 40.1268C47.1841 39.8993 46.6387 39.172 46.1387 38.5815C46.1217 38.5472 46.0986 38.5163 46.0706 38.4903ZM53.6608 33.5137C54.5474 32.9459 55.3425 32.4232 56.0473 32.0142C56.4333 32.4232 56.6836 32.9683 56.6836 33.6053C56.7294 34.9006 55.0247 35.7869 53.6154 35.8775C52.2294 35.9681 51.8658 35.8775 51.0929 35.6278C50.8205 35.8317 50.4338 36.0366 50.1614 36.2641C50.1387 36.1051 50.1614 35.9233 50.1614 35.7642C50.7201 35.405 51.2806 35.0489 51.8431 34.6958C52.8203 34.9682 53.8429 34.9233 54.0247 34.3776C54.1608 33.9458 53.979 33.6955 53.6608 33.5137Z" fill="white"/>
<path fill-rule="evenodd" clip-rule="evenodd" d="M56.1151 31.9683C56.8196 33.0819 57.4332 34.1954 57.8653 35.1953L57.1608 35.7865H58.138C58.4561 36.6046 58.6607 37.3315 58.7292 37.8996C59.0246 40.3536 59.3882 41.5584 58.3656 42.8765C57.502 43.9449 56.0706 44.1267 52.6615 42.9222C54.3432 44.2403 58.9791 45.2402 59.4333 41.3312C59.6379 39.7407 59.2743 37.7866 58.5246 35.7868H60.0018L59.2515 34.946L59.5246 33.946H61.9786L62.2967 34.9232L61.5471 35.7868H66.3876L65.2737 34.7869L63.0243 28.1965H61.3653C60.8488 28.5733 60.3336 28.9521 59.82 29.3328L58.1838 34.9232C57.4114 33.1052 56.3657 31.3099 55.184 29.6282C55.4564 29.7646 55.6612 29.9464 55.9109 30.1736C55.9109 29.4237 55.9336 28.6283 55.9109 27.8784C55.6612 28.0829 55.3658 28.2874 55.0928 28.492C54.7746 28.4692 54.5477 28.3556 54.1841 28.242C53.1842 26.9012 52.093 25.6513 51.0025 24.6287C46.5477 20.3784 42.2075 17.7422 39.2756 19.4466C36.3213 21.1738 38.8439 27.7868 40.1846 30.2866C40.5483 31.0138 41.1164 31.8774 41.73 32.7864L41.0937 34.8996L40.0937 35.7862H42.9344L42.1618 34.8996L42.4572 33.9454H42.4799C43.7298 35.7407 45.0251 37.3994 45.4342 37.8081C45.5933 37.6948 45.7751 37.5584 45.9342 37.4451C45.6387 37.1948 45.3433 36.9224 45.0933 36.6494C44.7297 36.3085 43.9571 35.3086 43.048 33.9457H44.9115L45.2297 34.8772L44.457 35.7865H48.4567C48.6157 35.6725 48.7976 35.5362 48.9566 35.4456L48.2067 34.7411L45.9342 28.1962H41.889C41.8663 28.128 42.8208 29.1052 42.8208 29.1052L41.9118 32.1504C40.4801 29.7643 39.0257 26.8554 38.5939 24.4693C37.7303 19.9015 40.2528 18.3107 44.707 20.4469C47.4568 21.7877 50.7289 24.7647 53.4105 28.128C53.2293 28.128 53.0017 28.128 52.7294 28.1508C51.184 28.2189 50.002 29.4916 49.9565 30.6733C49.9338 31.855 51.4337 32.6273 52.32 32.991C52.3885 33.0137 52.4563 33.0594 52.5245 33.0822C53.5017 32.4459 54.4104 31.9004 55.2512 31.3778C55.0473 31.2641 54.8198 31.1505 54.5922 31.0596C53.4105 30.6051 52.3885 30.4915 52.3427 29.8324C52.3654 29.4007 53.2514 29.0825 54.3425 29.3325L55.6148 31.1505L56.1151 31.9683Z" fill="white"/>
<path fill-rule="evenodd" clip-rule="evenodd" d="M31.1172 28.196H34.4578L37.1621 32.8317V29.0823L36.4576 28.196H39.0483L38.2984 29.0369V34.7182L39.1392 35.7866H35.685L33.0261 31.264V35.0364L33.8215 35.7866H31.1626L31.8671 34.8088L31.8899 29.1051L31.1172 28.196Z" fill="white"/>
<path fill-rule="evenodd" clip-rule="evenodd" d="M42.7981 32.923H44.4343L43.5708 30.2642C43.5708 30.2642 42.8435 32.9 42.7981 32.923Z" fill="black"/>
<path fill-rule="evenodd" clip-rule="evenodd" d="M43.6843 30.6047C43.6096 30.6306 43.5338 30.6533 43.4571 30.6729C43.298 31.2638 42.9799 32.3546 42.8435 32.764C43.3207 32.65 43.8207 32.5364 44.2752 32.4458L43.6843 30.6047Z" fill="#ADACAC"/>
<path fill-rule="evenodd" clip-rule="evenodd" d="M59.8647 32.9232H61.501L60.6374 30.3098C60.6374 30.3098 59.9105 32.9002 59.8647 32.9232Z" fill="black"/>
<path fill-rule="evenodd" clip-rule="evenodd" d="M48.0704 13.4699C48.184 13.5154 48.2749 13.6517 48.2294 13.7654C48.184 13.9017 48.0476 13.9699 47.934 13.9472C47.7977 13.9017 47.7295 13.7654 47.7522 13.629C47.7977 13.5154 47.934 13.4472 48.0704 13.4699ZM42.2981 42.6717C42.4572 42.7175 42.5708 42.8993 42.5026 43.0583C42.4572 43.2401 42.2981 43.3307 42.1163 43.2859C42.0752 43.2736 42.0371 43.2531 42.0042 43.2255C41.9714 43.1979 41.9446 43.1639 41.9254 43.1255C41.9062 43.0871 41.8952 43.0452 41.8928 43.0024C41.8905 42.9596 41.8969 42.9168 41.9118 42.8765C41.9572 42.7175 42.139 42.6269 42.2981 42.6717ZM36.2986 42.5584C36.3397 42.5706 36.3779 42.5912 36.4107 42.6188C36.4435 42.6464 36.4704 42.6804 36.4895 42.7188C36.5087 42.7571 36.5198 42.799 36.5221 42.8419C36.5245 42.8847 36.518 42.9275 36.5032 42.9677C36.4577 43.1268 36.2759 43.2174 36.1168 43.1716C35.9577 43.1265 35.8441 42.9447 35.9123 42.7856C35.922 42.7449 35.9399 42.7066 35.9648 42.673C35.9897 42.6394 36.0211 42.6111 36.0572 42.5899C36.0932 42.5687 36.1332 42.5549 36.1747 42.5495C36.2162 42.5441 36.2583 42.5471 36.2986 42.5584ZM40.9573 39.8768C41.071 39.9226 41.1391 40.0586 41.1164 40.1722C41.0706 40.2862 40.9573 40.354 40.8207 40.3313C40.707 40.2862 40.6389 40.1495 40.6616 40.0359C40.7073 39.9222 40.8437 39.8541 40.9573 39.8768ZM38.7757 41.9221C38.8666 41.9448 38.912 42.0584 38.8893 42.149C38.8666 42.2402 38.753 42.286 38.6621 42.2629C38.5712 42.2399 38.5257 42.1266 38.5484 42.0354C38.5712 41.9451 38.6621 41.8993 38.7757 41.9221ZM40.1619 44.3534C40.2756 44.3991 40.3437 44.5124 40.321 44.6264C40.2756 44.7397 40.1619 44.8082 40.0483 44.7627C40.0213 44.758 39.9958 44.7473 39.9735 44.7313C39.9512 44.7153 39.9329 44.6945 39.9198 44.6705C39.9067 44.6464 39.8992 44.6197 39.8978 44.5923C39.8965 44.565 39.9013 44.5377 39.912 44.5124C39.9347 44.3991 40.0483 44.3306 40.1619 44.3534ZM42.5254 44.7858C42.6163 44.8085 42.6617 44.8991 42.639 44.9897C42.6163 45.0582 42.5254 45.1267 42.4345 45.1036C42.3436 45.0578 42.2981 44.9673 42.3208 44.8991C42.3436 44.8085 42.4572 44.7627 42.5254 44.7858ZM56.8881 39.5359C57.0014 39.5817 57.0699 39.695 57.0245 39.7862C57.0017 39.8995 56.8881 39.9453 56.7742 39.9226C56.6836 39.8998 56.6151 39.7862 56.6378 39.6723C56.6833 39.5814 56.7969 39.5129 56.8881 39.5359ZM56.9329 41.8766C57.0469 41.8993 57.1147 42.0357 57.092 42.149C57.0469 42.2629 56.9102 42.3308 56.8196 42.286C56.7063 42.2633 56.6151 42.1269 56.6605 42.0357C56.6833 41.9221 56.8196 41.8536 56.9329 41.8766ZM58.4786 39.8541C58.5919 39.8768 58.6831 40.0359 58.6376 40.1722C58.6149 40.3092 58.4558 40.3998 58.3195 40.354C58.1831 40.3089 58.115 40.1495 58.1377 40.0359C58.1831 39.8995 58.3422 39.8083 58.4786 39.8541ZM58.4558 38.3084C58.6149 38.3542 58.7289 38.5587 58.6834 38.7178C58.638 38.8769 58.4331 38.9902 58.274 38.9454C58.0922 38.8996 57.9786 38.6951 58.0244 38.536C58.0919 38.3542 58.2737 38.2406 58.4558 38.3084ZM61.4325 38.2406C61.5465 38.2633 61.6371 38.4224 61.5916 38.536C61.5695 38.6493 61.4104 38.7178 61.3192 38.6951C61.1829 38.6493 61.1147 38.5133 61.1374 38.3996C61.1829 38.2863 61.3192 38.1951 61.4325 38.2406ZM63.2285 39.831C63.3418 39.8768 63.4103 40.0128 63.3648 40.1492C63.3421 40.2404 63.2058 40.331 63.0924 40.2862C62.9555 40.2634 62.8879 40.1271 62.9106 40.0131C62.9551 39.8768 63.0921 39.8083 63.2285 39.831ZM61.3192 41.5812C61.4325 41.6039 61.501 41.763 61.4783 41.8766C61.4325 41.9899 61.2965 42.0584 61.1829 42.0357C61.0696 41.9899 60.9784 41.8539 61.0238 41.7403C61.0468 41.627 61.1829 41.5357 61.3192 41.5812ZM62.9782 42.6269C63.0694 42.649 63.16 42.7859 63.1145 42.8993C63.0924 43.0126 62.9555 43.0811 62.8421 43.0583C62.7288 43.0126 62.6603 42.8765 62.7058 42.7859C62.7285 42.6717 62.8646 42.6038 62.9782 42.6269ZM64.2732 39.3768C64.3872 39.4226 64.4777 39.5814 64.455 39.695C64.4099 39.8313 64.2511 39.9226 64.1369 39.8768C64.0005 39.831 63.9099 39.6723 63.9551 39.5586C63.9781 39.4223 64.1372 39.3311 64.2732 39.3768ZM60.9784 37.3312C61.0696 37.354 61.1147 37.4452 61.0917 37.513C61.0696 37.5815 60.9784 37.627 60.9105 37.6042C60.842 37.5815 60.7965 37.513 60.8193 37.4452C60.842 37.3543 60.9105 37.3085 60.9784 37.3312ZM57.7738 46.2172C57.9101 46.2629 58.0241 46.4447 57.9783 46.6038C57.9325 46.7629 57.7507 46.8535 57.5916 46.8083C57.4326 46.7626 57.342 46.5808 57.3877 46.4217C57.4329 46.2626 57.6147 46.1714 57.7738 46.2172ZM40.8437 36.1495C40.9346 36.1722 40.98 36.2635 40.9573 36.354C40.9346 36.4453 40.821 36.5131 40.7301 36.4904C40.6392 36.4453 40.5937 36.354 40.6164 36.2635C40.6392 36.1722 40.7528 36.1047 40.8437 36.1495ZM35.4123 42.0811C35.526 42.1039 35.5941 42.2402 35.5714 42.3535C35.526 42.4899 35.4123 42.5581 35.2987 42.5126C35.2687 42.5082 35.2401 42.4972 35.215 42.4802C35.1898 42.4633 35.1688 42.4409 35.1536 42.4147C35.1383 42.3886 35.1291 42.3593 35.1267 42.3291C35.1243 42.2989 35.1287 42.2685 35.1396 42.2402C35.144 42.2102 35.1551 42.1816 35.1721 42.1565C35.1891 42.1313 35.2115 42.1104 35.2377 42.0951C35.2639 42.0798 35.2932 42.0706 35.3234 42.0682C35.3537 42.0658 35.3841 42.0702 35.4123 42.0811ZM35.6623 40.8767C35.7759 40.9225 35.8441 41.0358 35.8214 41.1721C35.7759 41.2861 35.6623 41.3539 35.526 41.3091C35.4123 41.2864 35.3442 41.1494 35.3896 41.0361C35.3939 41.006 35.405 40.9773 35.4219 40.9521C35.4389 40.9269 35.4613 40.9059 35.4875 40.8906C35.5137 40.8752 35.543 40.866 35.5733 40.8636C35.6036 40.8612 35.634 40.8657 35.6623 40.8767ZM33.5034 41.127C33.5943 41.1721 33.6398 41.2633 33.617 41.3309C33.5943 41.4221 33.5034 41.4679 33.4125 41.4448C33.3216 41.4218 33.2762 41.3309 33.2989 41.2403C33.3216 41.1718 33.4125 41.104 33.5034 41.127ZM46.775 15.6516C46.9114 15.6743 46.9795 15.8106 46.9341 15.947C46.8886 16.0837 46.7523 16.1515 46.6387 16.1061C46.5023 16.0833 46.4341 15.947 46.4796 15.8106C46.5023 15.6743 46.6387 15.6061 46.775 15.6516ZM49.1384 16.0152C49.2066 16.0379 49.2518 16.1288 49.229 16.197C49.2066 16.2651 49.1384 16.3106 49.0475 16.2879C49.0021 16.2651 48.9566 16.197 48.9794 16.1061C49.0021 16.0379 49.0703 15.9924 49.1384 16.0152ZM49.229 18.4244C49.2975 18.4471 49.343 18.5153 49.3202 18.5834C49.2975 18.6744 49.229 18.6971 49.1384 18.6744C49.0703 18.6516 49.0248 18.5834 49.0475 18.5153C49.0703 18.4468 49.1612 18.4013 49.229 18.4244ZM44.1843 17.4014C44.2525 17.4241 44.2979 17.4923 44.2752 17.5605C44.2525 17.6514 44.1843 17.6968 44.1161 17.6741C44.0252 17.6514 44.0025 17.5605 44.0252 17.4923C44.048 17.4241 44.1161 17.3787 44.1843 17.4014ZM44.6161 17.7423C44.707 17.765 44.7525 17.8559 44.7297 17.9241C44.707 17.9923 44.6161 18.0374 44.5479 18.015C44.4798 17.9923 44.4343 17.9241 44.457 17.8332C44.4798 17.765 44.5479 17.7196 44.6161 17.7423ZM40.7301 21.3329C40.821 21.3556 40.8664 21.4465 40.8437 21.5147C40.821 21.5829 40.7301 21.628 40.6619 21.6056C40.5937 21.5829 40.5483 21.5147 40.571 21.4238C40.5937 21.3556 40.6619 21.3329 40.7301 21.3329ZM45.2524 17.9923C45.3433 18.015 45.3888 18.1059 45.366 18.1968C45.3433 18.3104 45.2524 18.3559 45.1388 18.3332C45.0479 18.3104 45.0024 18.2195 45.0252 18.1059C45.0706 18.015 45.1615 17.9695 45.2524 17.9923ZM44.457 18.6968C44.5479 18.7422 44.6161 18.8331 44.5934 18.924C44.5479 19.0149 44.457 19.0831 44.3661 19.0376C44.2752 19.0149 44.207 18.924 44.2525 18.8104C44.2752 18.7195 44.3661 18.6744 44.457 18.6968ZM47.3886 17.3787C47.5022 17.4241 47.5704 17.5378 47.5249 17.6287C47.5022 17.765 47.3886 17.8105 47.2522 17.7877C47.1613 17.7423 47.0932 17.6514 47.1386 17.515C47.1613 17.4014 47.275 17.356 47.3886 17.3787ZM41.3891 22.2419C41.5027 22.2874 41.5709 22.401 41.5482 22.4919C41.5027 22.6282 41.3891 22.6737 41.2755 22.651C41.1619 22.6055 41.0937 22.5146 41.1391 22.3783C41.1619 22.2646 41.2755 22.2192 41.3891 22.2419ZM51.9334 19.7876C52.0697 19.833 52.1609 19.9694 52.1152 20.1057C52.0694 20.2648 51.9333 20.333 51.7743 20.2875C51.7425 20.2778 51.713 20.2617 51.6876 20.2402C51.6622 20.2187 51.6414 20.1923 51.6265 20.1626C51.6117 20.1328 51.603 20.1003 51.601 20.0671C51.5991 20.0339 51.6039 20.0007 51.6152 19.9694C51.661 19.8103 51.7973 19.7421 51.9334 19.7876ZM51.6382 15.4698L51.82 13.9244L51.9564 15.4698C52.0022 15.4925 52.0476 15.5152 52.0697 15.5607L53.1381 15.6743L52.0927 15.8106C52.07 15.9015 52.0249 15.947 51.9564 15.9924L51.82 17.6287L51.661 15.9924C51.5968 15.9484 51.5489 15.8846 51.5246 15.8106L50.4562 15.7425L51.5473 15.5834C51.5697 15.5379 51.6155 15.4925 51.6382 15.4698ZM42.5254 21.4238L42.6845 20.4466L42.8208 21.4238C42.8693 21.4494 42.9089 21.489 42.9344 21.5374L43.7071 21.6283L42.9572 21.7874C42.9344 21.8556 42.889 21.9238 42.8205 21.9465L42.6841 23.2646L42.5251 21.9465C42.4569 21.901 42.4114 21.8556 42.3887 21.7874L41.7069 21.7192L42.4114 21.5374C42.4373 21.4891 42.477 21.4495 42.5254 21.4238ZM63.4324 38.0133L63.5915 37.0361L63.7284 38.0133C63.7736 38.036 63.819 38.0591 63.8417 38.1045L64.5693 38.2409L63.8648 38.3542C63.8406 38.4281 63.7926 38.492 63.7284 38.536L63.5694 39.5132L63.4324 38.536C63.3683 38.4919 63.3204 38.428 63.296 38.3542L62.3873 38.2636L63.3187 38.1272C63.3446 38.0789 63.3841 38.0393 63.4324 38.0133ZM61.5916 42.5126L61.7286 41.9448L61.9104 42.5126C61.9555 42.5353 61.9783 42.5811 62.001 42.6266L62.5237 42.8084L62.0464 42.8762C62.0237 42.9447 61.9552 43.0126 61.9101 43.058L61.7731 43.6492L61.5913 43.0353C61.5234 43.0126 61.478 42.9447 61.455 42.8762L60.8644 42.8084L61.5007 42.6486C61.5238 42.5811 61.5465 42.5584 61.5916 42.5126ZM40.6619 46.6035L40.7528 45.6714L40.98 46.6035C41.0255 46.6262 41.071 46.6713 41.0937 46.6941L41.8891 46.808L41.1164 46.9444C41.0937 47.035 41.0482 47.1034 40.98 47.1262L40.821 48.0803L40.6619 47.1262C40.6113 47.0745 40.5725 47.0125 40.5483 46.9444L39.7756 46.8532L40.571 46.7168C40.5937 46.6713 40.6164 46.6265 40.6619 46.6035ZM47.1159 44.3085C47.2522 44.3537 47.3431 44.4897 47.2977 44.6267C47.2519 44.7631 47.1159 44.8536 46.9795 44.8085C46.8432 44.7627 46.7523 44.6267 46.7977 44.4897C46.8432 44.3534 46.9795 44.2628 47.1159 44.3085ZM50.9565 42.9677C51.0477 42.9898 51.1156 43.1041 51.0928 43.1947C51.0477 43.3086 50.9338 43.3765 50.8432 43.331C50.7292 43.3089 50.6841 43.1947 50.7068 43.1041C50.7113 43.0771 50.7219 43.0514 50.7378 43.0291C50.7537 43.0068 50.7745 42.9884 50.7985 42.9752C50.8225 42.9621 50.8493 42.9546 50.8766 42.9533C50.904 42.952 50.9313 42.9569 50.9565 42.9677Z" fill="white"/>
</svg>
