<svg width="96" height="48" viewBox="0 0 96 48" fill="none" xmlns="http://www.w3.org/2000/svg">
<rect x="0.270508" y="0.875" width="95.2315" height="46.2459" rx="22.8848" fill="white"/>
<path d="M54.8408 28.7188H55.7892V30.8051H55.9788L56.4425 28.7188H57.454L56.7796 31.1634L57.454 33.7555H56.4425L55.9788 31.5638H55.7892V33.7555H54.8408V28.7188Z" fill="black"/>
<path d="M52.3545 28.7188H54.4408V29.5828H53.2818V30.8262H54.1669V31.6059H53.2818V32.9336H54.4408V33.7765H52.3545V28.7188Z" fill="black"/>
<path d="M49.8467 28.7188H51.933V29.5828H50.7739V30.8262H51.6591V31.6059H50.7739V32.9336H51.933V33.7765H49.8467V28.7188Z" fill="black"/>
<path d="M45.3574 28.7188H46.2847L46.664 31.9642L47.0434 28.7188H47.8652L48.2446 31.9642L48.6239 28.7188H49.5512L48.7504 33.7555H47.7809L47.4227 30.6365L47.0644 33.7555H46.095L45.3574 28.7188Z" fill="black"/>
<path d="M32.5415 12.4844L30.0615 21.7248L39.3019 24.2048L41.7819 14.9643L32.5415 12.4844Z" fill="black"/>
<path d="M26.9287 19.0469L20.7012 26.3106L27.9649 32.5381L34.1925 25.2745L26.9287 19.0469Z" fill="black"/>
<path d="M43.7561 24.2031H34.1885V33.7708H43.7561V24.2031Z" fill="black"/>
<path d="M69.3398 22.9219H70.225L70.8993 25.4297V22.9219H71.8477V27.9586H70.9626L70.2882 25.5351V27.9586H69.3398V22.9219Z" fill="black"/>
<path d="M67.8438 22.9219H68.771V27.9586H67.8438V22.9219Z" fill="black"/>
<path d="M65.6524 22.9219H66.664L67.6123 27.9586H66.6851L66.5376 27.1156H65.7789L65.6314 27.9586H64.7041L65.6524 22.9219ZM66.4111 26.357L66.1582 24.4603L65.8843 26.357H66.4111Z" fill="black"/>
<path d="M61.9854 22.9219H62.9337V25.0082H63.5027V22.9219H64.43V27.9586H63.5027V25.788H62.9337V27.9586H61.9854V22.9219Z" fill="black"/>
<path d="M56.3584 22.9219H57.3067V25.0082H57.4964L57.96 22.9219H58.9716L58.3183 25.3665L58.9927 27.9586H57.9811L57.5175 25.7669H57.3278V27.9586H56.3795V22.9219H56.3584Z" fill="black"/>
<path d="M48.3086 22.9219H49.2569V27.1156H50.2896V27.9586H48.3297L48.3086 22.9219Z" fill="black"/>
<path d="M45.3574 22.9219H46.5165C47.2541 22.9219 47.7599 23.2801 47.7599 23.9124V24.671C47.7599 25.0504 47.6334 25.2822 47.3595 25.3875C47.6334 25.4929 47.802 25.7037 47.802 26.1462V26.9892C47.802 27.6214 47.2962 27.9586 46.5586 27.9586H45.3574V22.9219ZM46.4954 25.0504C46.6429 25.0504 46.8537 25.0293 46.8537 24.7975V23.9967C46.8537 23.7859 46.664 23.7438 46.4954 23.7438H46.3058V25.0504H46.4954ZM46.5165 27.1156C46.664 27.1156 46.8748 27.0946 46.8748 26.8627V25.9776C46.8748 25.7458 46.6851 25.7247 46.5165 25.7247H46.3058V27.1156H46.5165Z" fill="black"/>
<path d="M50.4785 26.7948V24.0973C50.4785 23.3808 50.9843 22.875 51.7219 22.875C52.4595 22.875 52.9653 23.3808 52.9653 24.0973V26.7948C52.9653 27.5113 52.4384 28.0171 51.7219 28.0171C50.9843 28.0171 50.4785 27.5113 50.4785 26.7948ZM51.7219 27.1531C51.8483 27.1531 52.0169 27.1109 52.0169 26.8159V24.0552C52.0169 23.7601 51.8483 23.718 51.7219 23.718C51.5954 23.718 51.4058 23.7601 51.4058 24.0552V26.8369C51.4269 27.132 51.5954 27.1531 51.7219 27.1531Z" fill="black"/>
<path d="M59.0771 26.8002V24.0817C59.0771 23.3652 59.5829 22.8594 60.3205 22.8594C61.0581 22.8594 61.5639 23.3652 61.5639 24.0817V24.3978H60.6366V24.0606C60.6366 23.7656 60.468 23.7234 60.3416 23.7234C60.2152 23.7234 60.0255 23.7656 60.0255 24.0606V26.8424C60.0255 27.1585 60.1941 27.1796 60.3416 27.1796C60.4891 27.1796 60.6366 27.1585 60.6366 26.8424V26.4841H61.585V26.8213C61.585 27.5378 61.0581 28.0436 60.3416 28.0436C59.604 28.0225 59.0771 27.5168 59.0771 26.8002Z" fill="black"/>
<path d="M53.4502 26.8002V24.0817C53.4502 23.3652 53.956 22.8594 54.6936 22.8594C55.4312 22.8594 55.9369 23.3652 55.9369 24.0817V24.3978H54.9886V24.0606C54.9886 23.7656 54.82 23.7234 54.6936 23.7234C54.5671 23.7234 54.3775 23.7656 54.3775 24.0606V26.8424C54.3775 27.1585 54.5461 27.1796 54.6936 27.1796C54.8411 27.1796 54.9886 27.1585 54.9886 26.8424V26.4841H55.9369V26.8213C55.9369 27.5378 55.4101 28.0436 54.6936 28.0436C53.956 28.0225 53.4502 27.5168 53.4502 26.8002Z" fill="black"/>
<path d="M53.9355 17.1016H54.8628V22.1383H53.9355V17.1016Z" fill="black"/>
<path d="M50.9629 17.1016H52.1852C52.9228 17.1016 53.4286 17.5652 53.4286 18.4292V19.5883C53.4286 20.0941 53.26 20.4524 52.9439 20.6842L53.4496 22.1594H52.4381L52.1009 20.9371H51.9112V22.1594H50.9629V17.1016ZM52.0798 20.073C52.2695 20.073 52.5224 20.0309 52.5224 19.5883V18.4082C52.5224 17.9867 52.2906 17.9235 52.0798 17.9235H51.9112V20.0519H52.0798V20.073Z" fill="black"/>
<path d="M48.772 17.1016H49.7835L50.7319 22.1383H49.8046L49.6782 21.2953H48.9195L48.772 22.1383H47.8447L48.772 17.1016ZM49.5307 20.5366L49.2778 18.6189L49.0038 20.5366H49.5307Z" fill="black"/>
<path d="M45.3574 17.1016H46.5797C47.3173 17.1016 47.8231 17.5652 47.8231 18.4292V19.6305C47.8231 20.4734 47.3173 20.9371 46.5797 20.9371H46.3058V22.1594H45.3574V17.1016ZM46.4744 20.073C46.664 20.073 46.9169 20.0309 46.9169 19.5883V18.4082C46.9169 17.9867 46.6851 17.9235 46.4744 17.9235H46.3058V20.0519H46.4744V20.073Z" fill="black"/>
<path d="M55.1992 21.0034H56.1265C56.1265 21.2984 56.3161 21.3616 56.4847 21.3616C56.6323 21.3616 56.8009 21.2773 56.8009 21.0877C56.8009 20.9401 56.7798 20.8348 56.569 20.5397L55.6418 19.2542C55.2835 18.7484 55.2414 18.4323 55.2414 18.1373C55.2414 17.484 55.7471 17.0625 56.4637 17.0625C57.1802 17.0625 57.686 17.5472 57.686 18.2427H56.7587C56.7587 17.9687 56.5901 17.9055 56.4426 17.9055C56.2951 17.9055 56.1686 17.9898 56.1686 18.1584C56.1686 18.2848 56.2529 18.4534 56.4004 18.6431L57.3277 19.9286C57.686 20.4344 57.7492 20.7294 57.7492 21.1087C57.7492 21.7831 57.2223 22.2257 56.4847 22.2257C55.7261 22.2046 55.1992 21.7199 55.1992 21.0034Z" fill="black"/>
</svg>
