<svg width="162" height="46" viewBox="0 0 162 46" fill="none" xmlns="http://www.w3.org/2000/svg">
<rect x="0.956055" y="0.0078125" width="160.679" height="45.9833" rx="22.8848" fill="white"/>
<g clip-path="url(#clip0_14817_2625)">
<mask id="mask0_14817_2625" style="mask-type:luminance" maskUnits="userSpaceOnUse" x="18" y="8" width="127" height="30">
<path d="M144.472 8.58594H18.1201V37.0518H144.472V8.58594Z" fill="white"/>
</mask>
<g mask="url(#mask0_14817_2625)">
<path d="M32.1403 37.0533C39.8834 37.0533 46.1605 30.6807 46.1605 22.8196C46.1605 14.9586 39.8834 8.58594 32.1403 8.58594C24.3972 8.58594 18.1201 14.9586 18.1201 22.8196C18.1201 30.6807 24.3972 37.0533 32.1403 37.0533Z" fill="black"/>
<path d="M32.1406 22.6286C32.7624 22.6286 33.3621 22.3941 33.824 21.9703L36.3956 19.5233H35.1623L33.2022 21.3721C32.9105 21.6426 32.53 21.7929 32.1362 21.7929C31.7424 21.7929 31.3604 21.6426 31.0703 21.3721L29.1219 19.5233H27.8887L30.4603 21.9703C30.9222 22.3941 31.5218 22.6286 32.1436 22.6286H32.1406ZM26.3475 16.3294C26.0307 16.4616 25.7435 16.657 25.5022 16.9021C25.2609 17.147 25.0684 17.4401 24.9381 17.7603C24.8078 18.0819 24.7397 18.4261 24.7397 18.7733V20.6927C24.7397 21.0985 24.5872 21.4908 24.3133 21.7869C24.0394 22.083 23.6634 22.2603 23.2637 22.2844L23.2874 22.7052L23.2637 23.1261C23.6634 23.1501 24.0394 23.3275 24.3133 23.6236C24.5872 23.9197 24.7397 24.3105 24.7397 24.7178V26.9302C24.7397 27.6637 25.024 28.3686 25.5347 28.8887C26.0455 29.4087 26.7383 29.7019 27.4608 29.7033V28.8602C26.959 28.8602 26.4793 28.6572 26.1239 28.298C25.7701 27.9388 25.5703 27.4503 25.5703 26.9408V24.7163C25.5703 24.3195 25.4755 23.9287 25.2919 23.577C25.1083 23.2268 24.8448 22.9262 24.5206 22.7022C24.8433 22.4783 25.1069 22.1777 25.2905 21.8275C25.4725 21.4773 25.5688 21.0865 25.5703 20.6896V18.7703C25.5717 18.2924 25.7598 17.8354 26.0929 17.4987C26.426 17.1605 26.876 16.9712 27.3454 16.9682H27.6681V16.125H27.3454C27.0033 16.125 26.6644 16.1926 26.3475 16.3264V16.3294ZM32.1406 23.1862C31.5174 23.1862 30.9163 23.4237 30.4573 23.8535L27.8754 26.311H29.1086L31.0806 24.4382C31.3723 24.1677 31.7528 24.0174 32.1466 24.0174C32.5404 24.0174 32.9223 24.1677 33.2125 24.4382L35.1727 26.311H36.4059L33.824 23.8535C33.365 23.4252 32.7639 23.1862 32.1406 23.1862ZM41.0073 22.2844C40.6075 22.2603 40.2315 22.083 39.9576 21.7869C39.6837 21.4908 39.5312 21.1 39.5312 20.6927V18.7733C39.5312 18.0729 39.2603 17.401 38.7732 16.9051C38.2861 16.4091 37.6259 16.1295 36.9374 16.128H36.6147V16.9712H36.9374C37.1698 16.9712 37.4008 17.0178 37.6155 17.1094C37.8301 17.1996 38.0256 17.3334 38.1884 17.5003C38.3528 17.6671 38.4816 17.867 38.5704 18.0849C38.6577 18.3029 38.7036 18.5373 38.7021 18.7733V20.6927C38.7021 21.0895 38.7999 21.4803 38.9819 21.8305C39.1641 22.1807 39.4291 22.4813 39.7518 22.7052C39.4276 22.9277 39.1641 23.2283 38.9805 23.58C38.7969 23.9302 38.7021 24.3225 38.7021 24.7193V26.9438C38.7021 27.4533 38.5023 27.9403 38.1485 28.301C37.7946 28.6602 37.3134 28.8631 36.8116 28.8631V29.7063C37.5341 29.7049 38.2269 29.4117 38.7377 28.8917C39.2485 28.3716 39.5342 27.6667 39.5327 26.9332V24.7208C39.5327 24.315 39.6852 23.9227 39.9591 23.6266C40.233 23.3305 40.609 23.1531 41.0088 23.1291L40.985 22.7082L41.0088 22.2874L41.0073 22.2844Z" fill="#F5F4E7"/>
<path d="M49.3105 22.394C49.3105 18.3554 51.9384 15.7266 55.8972 15.7266C59.4948 15.7266 62.0086 17.6595 62.0086 20.7512V21.0218H59.7435V20.7512C59.7435 18.7792 58.5058 17.7166 55.9165 17.7166C52.9274 17.7166 51.481 19.1655 51.481 22.394C51.481 25.6225 52.9274 27.0519 55.9165 27.0519C58.5058 27.0519 59.7435 26.0088 59.7435 24.0173V23.7663H62.0086V24.0173C62.0086 27.1285 59.5156 29.0614 55.8972 29.0614C51.9369 29.0614 49.3105 26.4326 49.3105 22.394Z" fill="black"/>
<path d="M63.1123 22.8332C63.1123 19.8377 65.2249 17.8281 68.3665 17.8281C71.5081 17.8281 73.64 19.8377 73.64 22.8332C73.64 25.8287 71.5273 27.8187 68.3665 27.8187C65.2057 27.8187 63.1123 25.7897 63.1123 22.8332ZM71.6221 22.8332C71.6221 20.7846 70.6701 19.6633 68.3665 19.6633C66.0629 19.6633 65.1302 20.7846 65.1302 22.8332C65.1302 24.8818 66.0821 25.964 68.3665 25.964C70.6509 25.964 71.6221 24.8623 71.6221 22.8332Z" fill="black"/>
<path d="M75.1229 27.6264V18.0205H77.0076V20.9199H77.1217C77.3688 19.3161 78.3975 17.8281 80.7575 17.8281C82.9088 17.8281 84.0694 19.1613 84.336 20.998H84.4501C84.6973 19.3552 85.7632 17.8281 88.1616 17.8281C90.5601 17.8281 91.8553 19.5296 91.8553 21.8487V27.6278H89.8181V22.4093C89.8181 20.5155 89.0767 19.7039 87.2482 19.7039C85.2299 19.7039 84.5063 20.747 84.5063 22.8738V27.6278H82.4691V22.4093C82.4691 20.5155 81.745 19.7039 79.9182 19.7039C77.8809 19.7039 77.1763 20.747 77.1763 22.8738V27.6278H75.1201L75.1229 27.6264Z" fill="black"/>
<path d="M93.703 27.6264V18.0205H95.5877V20.9199H95.7018C95.9489 19.3161 96.9781 17.8281 99.3382 17.8281C101.489 17.8281 102.649 19.1613 102.916 20.998H103.03C103.277 19.3552 104.343 17.8281 106.742 17.8281C109.14 17.8281 110.435 19.5296 110.435 21.8487V27.6278H108.398V22.4093C108.398 20.5155 107.657 19.7039 105.828 19.7039C103.811 19.7039 103.086 20.747 103.086 22.8738V27.6278H101.049V22.4093C101.049 20.5155 100.326 19.7039 98.4982 19.7039C96.4616 19.7039 95.7563 20.747 95.7563 22.8738V27.6278H93.7002L93.703 27.6264Z" fill="black"/>
<path d="M111.863 22.8332C111.863 19.8377 113.976 17.8281 117.118 17.8281C120.259 17.8281 122.391 19.8377 122.391 22.8332C122.391 25.8287 120.279 27.8187 117.118 27.8187C113.957 27.8187 111.863 25.7897 111.863 22.8332ZM120.373 22.8332C120.373 20.7846 119.422 19.6633 117.118 19.6633C114.814 19.6633 113.882 20.7846 113.882 22.8332C113.882 24.8818 114.833 25.964 117.118 25.964C119.402 25.964 120.373 24.8623 120.373 22.8332Z" fill="black"/>
<path d="M123.876 27.62V18.0142H125.76V20.9902H125.893C126.18 19.3669 127.436 17.8203 129.835 17.8203C132.463 17.8203 133.756 19.6179 133.756 21.8409V27.62H131.7V22.4015C131.7 20.6039 130.901 19.6961 128.939 19.6961C126.863 19.6961 125.931 20.7783 125.931 22.866V27.62H123.874H123.876Z" fill="black"/>
<path d="M135.277 24.3798V24.3212H137.333V24.476C137.333 25.7325 138.077 26.1384 140.056 26.1384C141.902 26.1384 142.455 25.7521 142.455 24.9014C142.455 24.1092 141.997 23.8583 140.645 23.6643L138.056 23.3172C136.266 23.0857 135.181 22.3116 135.181 20.7079C135.181 19.1042 136.685 17.8281 139.597 17.8281C142.509 17.8281 144.243 19.0065 144.243 21.2881V21.3467H142.206V21.2309C142.206 20.0902 141.634 19.492 139.541 19.492C137.808 19.492 137.198 19.8782 137.198 20.7876C137.198 21.5421 137.579 21.8126 139.008 22.005L141.198 22.3146C143.443 22.6047 144.472 23.3773 144.472 24.963C144.472 26.7606 142.721 27.8233 140.056 27.8233C137.011 27.8233 135.279 26.6058 135.279 24.3828L135.277 24.3798Z" fill="black"/>
</g>
</g>
<defs>
<clipPath id="clip0_14817_2625">
<rect width="126.352" height="28.8197" fill="white" transform="translate(18.1201 8.58594)"/>
</clipPath>
</defs>
</svg>
